<svg width="25" height="23" viewBox="0 0 25 23" fill="none" xmlns="http://www.w3.org/2000/svg">
<mask id="mask0_309_10065" style="mask-type:luminance" maskUnits="userSpaceOnUse" x="0" y="0" width="19" height="18">
<path d="M0 0H18.6163V17.5605H0V0Z" fill="white"/>
</mask>
<g mask="url(#mask0_309_10065)">
<path d="M18.3149 4.55814V2.33751C18.3149 1.04896 17.1748 0 15.7775 0H2.54403C1.14034 0 0.00341797 1.04896 0.00341797 2.33751V14.5159C0.00341797 15.8015 1.14034 16.8505 2.54403 16.8505H4.95761V8.48515C4.95761 6.32003 6.86943 4.55814 9.22267 4.55814H18.3149Z" fill="#858EA9"/>
</g>
<mask id="mask1_309_10065" style="mask-type:luminance" maskUnits="userSpaceOnUse" x="6" y="5" width="19" height="18">
<path d="M6.42163 5.59039H24.9999V22.999H6.42163V5.59039Z" fill="white"/>
</mask>
<g mask="url(#mask1_309_10065)">
<path d="M22.4559 6.14801H9.2225C7.82198 6.14801 6.68506 7.19697 6.68506 8.48552V20.661C6.68506 21.9495 7.82198 22.9985 9.2225 22.9985H22.4559C23.8564 22.9985 24.9965 21.9495 24.9965 20.661V8.48552C24.9965 7.19697 23.8564 6.14801 22.4559 6.14801ZM21.1062 15.3665H16.7014V19.4192C16.7014 19.8604 16.3172 20.214 15.8376 20.214C15.3613 20.214 14.9738 19.8604 14.9738 19.4192V15.3665H10.5722C10.0958 15.3665 9.70839 15.013 9.70839 14.5718C9.70839 14.1364 10.0958 13.78 10.5722 13.78H14.9738V9.72732C14.9738 9.28903 15.3613 8.93256 15.8376 8.93256C16.3172 8.93256 16.7014 9.28903 16.7014 9.72732V13.78H21.1062C21.5858 13.78 21.97 14.1364 21.97 14.5718C21.97 15.013 21.5858 15.3665 21.1062 15.3665Z" fill="#858EA9"/>
</g>
</svg>
