<svg width="34" height="35" viewBox="0 0 34 35" fill="none" xmlns="http://www.w3.org/2000/svg">
<path d="M7.93151 14.2342C11.0559 9.99757 23.0292 1.59261 27.2658 4.717C31.5024 7.8414 26.398 21.312 23.2736 25.5486L19.7922 30.2692C16.6678 34.5058 10.7006 35.4074 6.46398 32.283C2.22738 29.1586 1.32577 23.1914 4.45016 18.9548L7.93151 14.2342Z" fill="url(#paint0_linear_607_5370)"/>
<g filter="url(#filter0_b_607_5370)">
<path d="M28.2227 2.77917C23.9861 -0.345221 18.0189 0.556392 14.8945 4.79299L9.23727 12.464L24.5793 23.7785L30.2365 16.1074C33.3609 11.8708 32.4593 5.90357 28.2227 2.77917Z" fill="white" fill-opacity="0.2"/>
</g>
<path fill-rule="evenodd" clip-rule="evenodd" d="M16.1667 7.15775C18.3705 2.75451 22.6875 2.29523 24.7179 3.12328C25.3068 3.36341 25.5894 4.03542 25.3493 4.62424C25.1092 5.21306 24.4372 5.49573 23.8483 5.2556C22.8427 4.84547 19.8491 4.94545 18.2261 8.18841C17.9414 8.75707 17.2497 8.98734 16.6811 8.70273C16.1124 8.41812 15.8821 7.72641 16.1667 7.15775Z" fill="white"/>
<defs>
<filter id="filter0_b_607_5370" x="-15.7627" y="-24.0818" width="72.8604" height="72.8604" filterUnits="userSpaceOnUse" color-interpolation-filters="sRGB">
<feFlood flood-opacity="0" result="BackgroundImageFix"/>
<feGaussianBlur in="BackgroundImageFix" stdDeviation="12.5"/>
<feComposite in2="SourceAlpha" operator="in" result="effect1_backgroundBlur_607_5370"/>
<feBlend mode="normal" in="SourceGraphic" in2="effect1_backgroundBlur_607_5370" result="shape"/>
</filter>
<linearGradient id="paint0_linear_607_5370" x1="2.16066" y1="19.3717" x2="28.8858" y2="17.4396" gradientUnits="userSpaceOnUse">
<stop offset="0.9998" stop-color="#601FE4"/>
<stop offset="0.9999" stop-color="#A477FF" stop-opacity="0.803824"/>
<stop offset="1" stop-color="#A071FF" stop-opacity="0.65"/>
</linearGradient>
</defs>
</svg>
