<svg width="48" height="32" viewBox="0 0 48 32" fill="none" xmlns="http://www.w3.org/2000/svg">
<path d="M39.9348 2.83391C39.0521 1.96149 38.0041 1.26942 36.8506 0.797238C35.6971 0.325062 34.4607 0.0820312 33.2121 0.0820312C31.9634 0.0820312 30.7271 0.325062 29.5735 0.797238C28.42 1.26942 27.372 1.96149 26.4893 2.83391L24.6574 4.64366L22.8255 2.83391C21.0425 1.0725 18.6242 0.0829443 16.1027 0.0829443C13.5811 0.0829443 11.1629 1.0725 9.37988 2.83391C7.59689 4.59533 6.59521 6.98432 6.59521 9.47534C6.59521 11.9664 7.59689 14.3553 9.37988 16.1168L11.2118 17.9265L24.6574 31.2094L38.1029 17.9265L39.9348 16.1168C40.818 15.2447 41.5185 14.2094 41.9965 13.0698C42.4744 11.9303 42.7204 10.7088 42.7204 9.47534C42.7204 8.24183 42.4744 7.02041 41.9965 5.88085C41.5185 4.74129 40.818 3.70593 39.9348 2.83391Z" fill="url(#paint0_linear_607_5366)"/>
<g filter="url(#filter0_b_607_5366)">
<path d="M20.1423 22.8288C19.7991 22.8284 19.4621 22.7384 19.165 22.5677C18.868 22.3969 18.6212 22.1515 18.4497 21.8561L15.1134 15.8934L12.9805 19.0741C12.7969 19.3373 12.5508 19.5514 12.2641 19.6973C11.9774 19.8432 11.6588 19.9165 11.3368 19.9107H2.53125C2.01227 19.9107 1.51456 19.7057 1.14759 19.3409C0.780623 18.976 0.574463 18.4812 0.574463 17.9653C0.574463 17.4493 0.780623 16.9545 1.14759 16.5896C1.51456 16.2248 2.01227 16.0198 2.53125 16.0198H10.2899L13.6262 11.0493C13.8126 10.7724 14.0674 10.5477 14.3662 10.3967C14.6651 10.2458 14.9979 10.1737 15.3328 10.1874C15.6677 10.2011 15.9934 10.3 16.2788 10.4748C16.5642 10.6496 16.7996 10.8943 16.9625 11.1855L20.1423 16.9926L25.2593 8.23819C25.4341 7.93696 25.687 7.68784 25.9916 7.51677C26.2961 7.34569 26.6413 7.25892 26.991 7.26548C27.3325 7.26753 27.6675 7.35839 27.9627 7.52904C28.258 7.69968 28.5031 7.94416 28.6739 8.23819L33.3604 16.0198L35.3171 14.483C35.664 14.2153 36.0913 14.0714 36.5303 14.0744H45.5805C46.0994 14.0744 46.5972 14.2794 46.9641 14.6442C47.3311 15.0091 47.5373 15.5039 47.5373 16.0198C47.5373 16.5358 47.3311 17.0306 46.9641 17.3955C46.5972 17.7603 46.0994 17.9653 45.5805 17.9653H37.2152L34.0354 20.4651C33.8164 20.6443 33.5607 20.774 33.2862 20.8452C33.0117 20.9163 32.7249 20.9273 32.4457 20.8774C32.1665 20.8274 31.9015 20.7177 31.6692 20.5558C31.4369 20.3939 31.2428 20.1837 31.1003 19.9399L26.991 13.0434L21.8349 21.8561C21.6633 22.1515 21.4166 22.3969 21.1195 22.5677C20.8225 22.7384 20.4854 22.8284 20.1423 22.8288Z" fill="white" fill-opacity="0.2"/>
</g>
<defs>
<filter id="filter0_b_607_5366" x="-24.4255" y="-17.7349" width="96.9629" height="65.5637" filterUnits="userSpaceOnUse" color-interpolation-filters="sRGB">
<feFlood flood-opacity="0" result="BackgroundImageFix"/>
<feGaussianBlur in="BackgroundImageFix" stdDeviation="12.5"/>
<feComposite in2="SourceAlpha" operator="in" result="effect1_backgroundBlur_607_5366"/>
<feBlend mode="normal" in="SourceGraphic" in2="effect1_backgroundBlur_607_5366" result="shape"/>
</filter>
<linearGradient id="paint0_linear_607_5366" x1="6.59521" y1="14.6081" x2="41.8544" y2="14.7907" gradientUnits="userSpaceOnUse">
<stop offset="0.9998" stop-color="#DE0000"/>
<stop offset="0.9999" stop-color="#E80101" stop-opacity="0.784574"/>
<stop offset="1" stop-color="#FF7070" stop-opacity="0.65"/>
</linearGradient>
</defs>
</svg>
