<svg width="27" height="26" viewBox="0 0 27 26" fill="none" xmlns="http://www.w3.org/2000/svg">
<path d="M24.3147 4.52884H19.1755V3.17203C19.1755 1.71669 18.0505 0.532715 16.6673 0.532715H10.3279C8.94522 0.532715 7.81967 1.71669 7.81967 3.17203V4.52884H2.68097C1.47428 4.52884 0.49292 5.56187 0.49292 6.83169V23.193C0.49292 24.4628 1.47428 25.4958 2.68097 25.4958H24.3147C25.5209 25.4958 26.5028 24.4634 26.5028 23.193V6.83169C26.5022 5.56187 25.5209 4.52884 24.3147 4.52884ZM9.49182 3.17203C9.49182 2.68691 9.86682 2.29226 10.3279 2.29226H16.6673C17.1283 2.29226 17.5033 2.68691 17.5033 3.17203V4.52942H9.49182V3.17203ZM18.5088 17.1037H15.4852V20.2852H11.5099V17.1037H8.48689V12.9209H11.5099V9.73948H15.4852V12.9209H18.5088V17.1037Z" fill="#858EA9"/>
</svg>
