<svg width="226" height="241" viewBox="0 0 226 241" fill="none" xmlns="http://www.w3.org/2000/svg">
<path d="M106.857 192.076H6.30492L0.802856 36.1191H101.355L106.857 192.076Z" fill="#1C6878"/>
<path d="M111.878 187.234H11.3255L5.8234 31.2773H106.376L111.878 187.234Z" fill="#1C6878"/>
<path opacity="0.3" d="M111.878 187.234H11.3255L5.8234 31.2773H106.376L111.878 187.234Z" fill="white"/>
<path d="M78.1948 95.45C88.9611 84.8878 88.503 67.6167 77.1717 56.874C65.8403 46.1312 47.9266 45.9849 37.1603 56.5472C26.394 67.1095 26.852 84.3806 38.1834 95.1233C49.5147 105.866 67.4284 106.012 78.1948 95.45Z" fill="#1C6878"/>
<path d="M81.0183 76.0074C81.1657 79.7238 80.3247 83.4147 78.5753 86.7291C76.6897 90.3003 73.8102 93.2945 70.2595 95.3764C66.7088 97.4583 62.6272 98.5455 58.4719 98.5162C54.2169 98.4925 50.0431 97.3912 46.3683 95.3225C42.6935 93.2539 39.6467 90.2905 37.5329 86.7291C35.5646 83.4648 34.465 79.7813 34.3322 76.0074C34.2016 73.0812 34.6892 70.1599 35.7654 67.421C36.8417 64.6821 38.4841 62.1829 40.5928 60.0751C42.7016 57.9673 45.2327 56.295 48.0323 55.1597C50.8319 54.0245 53.8417 53.45 56.8786 53.4713C63.135 53.514 69.1339 55.8793 73.6292 60.076C78.1246 64.2728 80.7708 69.9783 81.0183 76.0074Z" fill="white"/>
<path opacity="0.6" d="M78.5753 86.7306C76.6897 90.3018 73.8102 93.296 70.2595 95.3779C66.7088 97.4597 62.6271 98.5469 58.4718 98.5177C54.2169 98.494 50.0431 97.3927 46.3683 95.324C42.6935 93.2554 39.6466 90.292 37.5328 86.7306C43.5183 82.7981 50.5992 80.7075 57.8416 80.7346C65.2105 80.7453 72.4161 82.8291 78.5753 86.7306Z" fill="#1C6878"/>
<path opacity="0.6" d="M64.9475 75.4562C68.9064 71.5723 68.738 65.2215 64.5713 61.2714C60.4047 57.3212 53.8177 57.2674 49.8588 61.1512C45.8999 65.0351 46.0683 71.3859 50.2349 75.336C54.4016 79.2862 60.9886 79.34 64.9475 75.4562Z" fill="#1C6878"/>
<path d="M91.6825 130.757H27.5342L27.1023 118.465H91.2435L91.6825 130.757Z" fill="white"/>
<path d="M92.4543 152.726H28.3132L27.8741 140.434H92.0224L92.4543 152.726Z" fill="white"/>
<path d="M67.6986 142.128L52.2405 144.177C52.0929 144.194 51.9505 144.24 51.8224 144.313C51.6943 144.386 51.5831 144.483 51.496 144.599C51.4088 144.715 51.3476 144.848 51.316 144.988C51.2845 145.128 51.2834 145.273 51.3128 145.413L53.338 155.404C53.4031 155.698 53.5809 155.957 53.8357 156.129C54.0905 156.301 54.4035 156.374 54.7118 156.333L70.17 154.284C70.3177 154.267 70.4603 154.221 70.5887 154.148C70.7171 154.076 70.8287 153.978 70.9164 153.862C71.0041 153.747 71.0661 153.614 71.0985 153.474C71.1309 153.334 71.133 153.189 71.1047 153.048L69.0724 143.057C69.0074 142.764 68.8296 142.505 68.5747 142.332C68.3199 142.16 68.0069 142.087 67.6986 142.128ZM63.2587 152.249L60.4263 152.611L60.143 149.388C59.8515 149.267 59.5948 149.079 59.395 148.841C59.1952 148.603 59.0582 148.322 58.9959 148.022C58.9439 147.79 58.9428 147.55 58.9928 147.317C59.0428 147.085 59.1427 146.865 59.2861 146.672C59.4295 146.479 59.6133 146.317 59.8255 146.197C60.0377 146.076 60.2737 146 60.5183 145.973C61.0289 145.902 61.5484 146.021 61.9708 146.307C62.3932 146.592 62.6867 147.023 62.7914 147.51C62.8545 147.797 62.8373 148.095 62.7414 148.373C62.6456 148.652 62.4747 148.9 62.2461 149.094L63.2587 152.249Z" fill="#1C6878"/>
<path d="M66.1762 141.589C65.9024 141.626 65.6243 141.561 65.3982 141.408C65.1721 141.254 65.0148 141.024 64.9582 140.763L64.7599 139.786C64.477 138.453 63.7024 137.265 62.5799 136.441C61.4575 135.617 60.0633 135.214 58.656 135.306C57.9452 135.344 57.2513 135.53 56.6214 135.849C55.9915 136.169 55.4405 136.616 55.0058 137.16C54.5711 137.704 54.2629 138.331 54.1022 139C53.9415 139.669 53.932 140.363 54.0745 141.036L54.3011 142.163C54.3264 142.287 54.3246 142.416 54.2959 142.54C54.2673 142.664 54.2123 142.781 54.1345 142.884C54.0567 142.986 53.9577 143.072 53.8438 143.136C53.7299 143.2 53.6035 143.241 53.4726 143.255C53.1988 143.292 52.9207 143.227 52.6946 143.074C52.4685 142.92 52.3112 142.69 52.2546 142.429L52.0634 141.473C51.869 140.586 51.8626 139.671 52.0446 138.781C52.2266 137.892 52.5933 137.048 53.1225 136.299C53.6517 135.55 54.3326 134.912 55.1241 134.423C55.9156 133.935 56.8015 133.605 57.7284 133.455C59.7376 133.13 61.7999 133.562 63.4874 134.663C65.175 135.764 66.3584 137.45 66.7922 139.37L67.0188 140.496C67.0452 140.622 67.0439 140.752 67.0148 140.877C66.9858 141.003 66.9297 141.121 66.8502 141.224C66.7707 141.327 66.6696 141.413 66.5535 141.476C66.4374 141.539 66.3088 141.577 66.1762 141.589Z" fill="#1C6878"/>
<path d="M81.868 169.943H40.1175L39.8342 161.939H81.5848L81.868 169.943Z" fill="#1C6878"/>
<path d="M61.7009 124.61C61.7133 124.902 61.6642 125.193 61.5565 125.467C61.4487 125.74 61.2846 125.989 61.074 126.199C60.8635 126.409 60.6109 126.576 60.3316 126.689C60.0522 126.802 59.752 126.859 59.4491 126.857C58.8248 126.854 58.226 126.618 57.7774 126.2C57.3288 125.781 57.0652 125.212 57.0415 124.61C57.028 124.318 57.0764 124.026 57.1838 123.753C57.2911 123.479 57.4552 123.23 57.666 123.019C57.8767 122.809 58.1297 122.643 58.4095 122.53C58.6893 122.417 58.99 122.36 59.2933 122.363C59.9169 122.368 60.5148 122.604 60.963 123.022C61.4112 123.441 61.6754 124.009 61.7009 124.61Z" fill="#263238"/>
<path d="M51.6881 124.612C51.7006 124.904 51.6514 125.195 51.5437 125.468C51.4359 125.741 51.2718 125.991 51.0613 126.201C50.8507 126.411 50.5981 126.577 50.3188 126.691C50.0395 126.804 49.7392 126.861 49.4363 126.859C48.8114 126.856 48.2117 126.621 47.762 126.202C47.3123 125.784 47.0471 125.214 47.0216 124.612C47.0091 124.32 47.0583 124.029 47.166 123.756C47.2738 123.483 47.4379 123.234 47.6484 123.023C47.859 122.813 48.1116 122.647 48.3909 122.534C48.6702 122.42 48.9705 122.363 49.2734 122.365C49.8983 122.368 50.498 122.603 50.9477 123.022C51.3974 123.44 51.6626 124.01 51.6881 124.612Z" fill="#263238"/>
<path d="M41.647 124.612C41.6605 124.904 41.6121 125.196 41.5047 125.47C41.3973 125.743 41.2333 125.993 41.0225 126.203C40.8117 126.413 40.5587 126.58 40.2789 126.693C39.9992 126.805 39.6984 126.862 39.3952 126.859C38.7715 126.854 38.1737 126.618 37.7255 126.2C37.2772 125.782 37.0131 125.213 36.9876 124.612C36.9751 124.32 37.0243 124.029 37.132 123.756C37.2398 123.483 37.4039 123.234 37.6144 123.023C37.825 122.813 38.0776 122.647 38.3569 122.534C38.6362 122.42 38.9365 122.363 39.2394 122.365C39.8636 122.368 40.4625 122.604 40.9111 123.022C41.3596 123.441 41.6233 124.011 41.647 124.612Z" fill="#263238"/>
<path d="M71.7561 124.612C71.7697 124.905 71.7208 125.198 71.6126 125.473C71.5043 125.747 71.339 125.997 71.1267 126.208C70.9144 126.418 70.6597 126.585 70.3783 126.697C70.0968 126.809 69.7945 126.864 69.4901 126.859C68.8664 126.854 68.2686 126.618 67.8204 126.2C67.3722 125.782 67.108 125.213 67.0825 124.612C67.0701 124.32 67.1192 124.029 67.2269 123.756C67.3347 123.483 67.4988 123.234 67.7094 123.023C67.9199 122.813 68.1725 122.647 68.4518 122.534C68.7311 122.42 69.0314 122.363 69.3343 122.365C69.961 122.365 70.5634 122.599 71.015 123.018C71.4666 123.437 71.7323 124.008 71.7561 124.612Z" fill="#263238"/>
<path d="M81.7972 124.612C81.8097 124.904 81.7606 125.195 81.6528 125.468C81.5451 125.741 81.381 125.991 81.1704 126.201C80.9598 126.411 80.7073 126.577 80.4279 126.691C80.1486 126.804 79.8484 126.861 79.5454 126.859C78.9205 126.856 78.3209 126.621 77.8711 126.202C77.4214 125.784 77.1562 125.214 77.1307 124.612C77.1183 124.32 77.1674 124.029 77.2751 123.756C77.3829 123.483 77.547 123.234 77.7576 123.023C77.9681 122.813 78.2207 122.647 78.5 122.534C78.7794 122.42 79.0796 122.363 79.3826 122.365C80.0075 122.368 80.6071 122.603 81.0568 123.022C81.5065 123.44 81.7717 124.01 81.7972 124.612Z" fill="#263238"/>
<path d="M165.589 75.8047C166.53 77.2593 167.309 78.6593 168.124 80.1139C168.938 81.5685 169.66 83.0299 170.375 84.5255C171.835 87.5538 173.042 90.6891 173.987 93.9019C174.107 94.3048 174.206 94.735 174.313 95.1516L174.468 95.7867L174.546 96.1009L174.638 96.6199C174.8 97.7953 174.723 98.9897 174.412 100.137C173.93 101.926 173.188 103.642 172.209 105.231C170.462 108.127 168.35 110.804 165.921 113.201L162.961 110.988C164.455 108.334 165.786 105.598 166.948 102.793C167.46 101.554 167.824 100.261 168.032 98.9418C168.097 98.5415 168.077 98.1327 167.975 97.7398L167.692 96.9067C167.578 96.5584 167.472 96.2238 167.331 95.8755C166.26 93.0536 165.013 90.2965 163.599 87.6191C162.183 84.8874 160.667 82.1558 159.145 79.5539L165.589 75.8047Z" fill="#FF8B7B"/>
<path d="M163.67 110.012L160.419 111.678L164.158 115.898C164.158 115.898 166.495 114.376 166.594 112.054L163.67 110.012Z" fill="#FF8B7B"/>
<path d="M156.064 114.28L160.072 117.346L164.179 115.898L160.441 111.678L156.064 114.28Z" fill="#FF8B7B"/>
<path d="M142.426 53.4248C142.348 53.8072 142.072 54.1077 141.817 54.0189C141.562 53.9302 141.413 53.6229 141.491 53.2404C141.569 52.858 141.845 52.5985 142.107 52.6463C142.369 52.6941 142.469 53.0492 142.426 53.4248Z" fill="#263238"/>
<path d="M142.072 54.0801C141.358 55.1468 140.495 56.1141 139.509 56.9551C139.74 57.1885 140.022 57.3704 140.334 57.4884C140.645 57.6063 140.98 57.6574 141.314 57.6381L142.072 54.0801Z" fill="#FF5652"/>
<path d="M140.797 67.4731V63L146.944 63.6829C146.944 63.6829 146.838 67.5345 143.403 68.6613L140.797 67.4731Z" fill="#FF8B7B"/>
<path d="M142.561 59.7754L146.894 60.9773L146.972 63.7158L140.826 62.9987L142.561 59.7754Z" fill="#FF8B7B"/>
<path opacity="0.2" d="M146.894 60.9773L142.568 59.7754L141.718 61.3324C141.764 62.5593 142.162 63.7499 142.867 64.7722C143.571 65.7944 144.556 66.6083 145.712 67.1235C146.455 66.1221 146.89 64.9384 146.965 63.709L146.894 60.9773Z" fill="black"/>
<path d="M144.274 51.6008C144.335 51.6 144.392 51.5782 144.437 51.5393C144.48 51.4961 144.504 51.4386 144.504 51.3788C144.504 51.319 144.48 51.2615 144.437 51.2183C144.19 50.9461 143.877 50.7356 143.527 50.6048C143.177 50.474 142.799 50.4268 142.426 50.4671C142.367 50.4795 142.316 50.5132 142.282 50.5612C142.249 50.6092 142.236 50.6678 142.246 50.7249C142.256 50.782 142.288 50.8331 142.336 50.8678C142.384 50.9025 142.444 50.9179 142.504 50.911C142.8 50.8872 143.097 50.9304 143.373 51.0371C143.648 51.1438 143.894 51.3111 144.09 51.5256C144.113 51.5509 144.141 51.5708 144.173 51.5838C144.205 51.5969 144.24 51.6026 144.274 51.6008Z" fill="#263238"/>
<path d="M153.324 60.3359C152.616 63.8529 152.177 68.7153 154.74 71.0645C154.74 71.0645 153.742 74.6293 146.951 74.6293C139.509 74.6293 143.375 71.5016 143.375 71.5016C146.462 70.5728 146.441 67.1719 145.733 64.4402L153.324 60.3359Z" fill="#FF8B7B"/>
<path d="M156.121 73.4135C156.787 72.5052 156.758 69.6438 156.05 69.1453C154.91 68.3258 150.017 68.1414 143.432 69.6028C144.14 72.3345 142.624 73.8232 142.624 73.8232L156.121 73.4135Z" fill="#1C6878"/>
<path d="M178.25 235.537C178.05 235.608 177.837 235.639 177.624 235.628C177.411 235.618 177.202 235.566 177.01 235.475C176.938 235.408 176.888 235.321 176.868 235.226C176.847 235.131 176.858 235.032 176.897 234.943C176.921 234.869 176.96 234.802 177.012 234.744C177.065 234.686 177.129 234.64 177.202 234.608C177.874 234.301 179.418 234.908 179.489 234.936C179.511 234.943 179.529 234.957 179.542 234.976C179.555 234.994 179.561 235.016 179.56 235.038C179.558 235.06 179.551 235.081 179.539 235.099C179.526 235.117 179.509 235.131 179.489 235.141C179.092 235.315 178.676 235.448 178.25 235.537ZM177.442 234.772L177.301 234.813C177.259 234.832 177.221 234.86 177.191 234.894C177.16 234.928 177.138 234.968 177.124 235.011C177.06 235.216 177.124 235.277 177.166 235.298C177.435 235.523 178.427 235.298 179.128 235.045C178.594 234.835 178.018 234.742 177.442 234.772Z" fill="#1C6878"/>
<path d="M179.468 235.148H179.404C178.845 234.991 177.641 234.164 177.627 233.618C177.624 233.533 177.653 233.45 177.707 233.382C177.761 233.315 177.838 233.268 177.924 233.249C178.098 233.197 178.285 233.212 178.448 233.29C179.114 233.618 179.538 234.95 179.553 235.004C179.563 235.022 179.569 235.042 179.569 235.062C179.569 235.083 179.563 235.103 179.553 235.12C179.543 235.132 179.529 235.141 179.514 235.146C179.499 235.15 179.483 235.151 179.468 235.148ZM178.051 233.454H177.995C177.853 233.502 177.853 233.57 177.853 233.597C177.853 233.925 178.66 234.567 179.269 234.833C179.114 234.302 178.799 233.826 178.363 233.468C178.267 233.426 178.158 233.421 178.059 233.454H178.051Z" fill="#1C6878"/>
<path d="M141.477 236.344C140.84 236.344 140.224 236.262 140.019 235.982C139.963 235.911 139.934 235.825 139.934 235.736C139.934 235.647 139.963 235.561 140.019 235.49C140.058 235.423 140.112 235.364 140.176 235.318C140.241 235.272 140.315 235.24 140.394 235.224C141.222 235.005 142.964 235.961 143.035 236.002C143.056 236.013 143.073 236.031 143.083 236.052C143.093 236.072 143.096 236.096 143.092 236.118C143.088 236.141 143.077 236.163 143.061 236.18C143.045 236.197 143.023 236.209 143 236.214C142.497 236.3 141.988 236.343 141.477 236.344ZM140.691 235.415C140.616 235.403 140.54 235.403 140.465 235.415C140.416 235.424 140.371 235.442 140.33 235.469C140.29 235.496 140.256 235.531 140.231 235.572C140.146 235.716 140.174 235.784 140.231 235.825C140.458 236.132 141.718 236.139 142.646 236.016C142.041 235.694 141.377 235.49 140.691 235.415Z" fill="#1C6878"/>
<path d="M142.986 236.214H142.936C142.334 235.954 141.144 234.916 141.236 234.377C141.236 234.247 141.35 234.09 141.676 234.056C141.792 234.043 141.911 234.055 142.023 234.089C142.135 234.123 142.239 234.179 142.327 234.254C142.784 234.775 143.054 235.423 143.099 236.104C143.101 236.124 143.098 236.144 143.089 236.162C143.08 236.18 143.066 236.196 143.049 236.207C143.029 236.216 143.007 236.218 142.986 236.214ZM141.768 234.24H141.718C141.506 234.24 141.491 234.342 141.491 234.37C141.435 234.698 142.242 235.51 142.858 235.865C142.801 235.318 142.571 234.801 142.2 234.383C142.078 234.287 141.925 234.236 141.768 234.24Z" fill="#1C6878"/>
<path d="M148.459 236.097H143.481L142.986 224.973H147.964L148.459 236.097Z" fill="#FF8B7B"/>
<path d="M185.019 233.877L180.147 234.888L175.261 224.528L180.133 223.518L185.019 233.877Z" fill="#FF8B7B"/>
<path d="M179.68 234.418L185.154 233.277C185.25 233.257 185.351 233.269 185.439 233.313C185.527 233.357 185.596 233.428 185.635 233.516L187.533 237.484C187.584 237.58 187.61 237.686 187.609 237.794C187.609 237.902 187.582 238.008 187.531 238.104C187.48 238.2 187.406 238.283 187.315 238.346C187.225 238.409 187.12 238.451 187.009 238.467C185.097 238.836 184.177 238.925 181.734 239.423C180.261 239.731 176.918 240.516 174.872 240.946C172.826 241.376 172.124 239.478 172.925 239.13C176.465 237.552 177.988 236.166 178.958 234.875C179.132 234.642 179.389 234.479 179.68 234.418Z" fill="#263238"/>
<path d="M143.51 235.545H148.955C149.053 235.546 149.147 235.579 149.223 235.638C149.299 235.698 149.352 235.781 149.373 235.873L150.357 240.141C150.385 240.244 150.387 240.351 150.364 240.455C150.341 240.559 150.293 240.656 150.224 240.739C150.156 240.821 150.068 240.888 149.968 240.932C149.868 240.977 149.759 240.998 149.649 240.995C147.687 240.995 144.855 240.851 142.384 240.851C139.502 240.851 137.016 241.001 133.631 241.001C131.585 241.001 131.018 239.014 131.875 238.83C135.77 238.01 138.956 237.921 142.32 235.921C142.673 235.692 143.085 235.562 143.51 235.545Z" fill="#263238"/>
<path d="M163.67 72.1515C168.343 73.1827 172.167 84.6762 172.167 84.6762L162.792 91.5668C160.373 89.0695 158.665 86.0111 157.835 82.6889C156.213 76.6656 158.869 71.093 163.67 72.1515Z" fill="#1C6878"/>
<path opacity="0.4" d="M163.67 72.1515C168.343 73.1827 172.167 84.6762 172.167 84.6762L162.792 91.5668C160.373 89.0695 158.665 86.0111 157.835 82.6889C156.213 76.6656 158.869 71.093 163.67 72.1515Z" fill="black"/>
<path d="M139.098 85.8634C137.93 87.079 136.768 88.158 135.557 89.278C134.956 89.8312 134.347 90.3707 133.723 90.9033L132.782 91.6955L132.548 91.8935C132.428 91.9892 132.293 92.1053 132.144 92.2145C131.723 92.5294 131.261 92.791 130.771 92.993C130.226 93.2145 129.641 93.3305 129.05 93.3345C128.542 93.3366 128.039 93.251 127.563 93.0818C127.035 92.8879 126.553 92.5928 126.147 92.2145C125.63 91.7228 125.248 91.115 125.035 90.4458C124.932 90.1141 124.866 89.7731 124.837 89.4282C124.796 89.0217 124.796 88.6124 124.837 88.2058C124.837 87.878 124.914 87.598 124.964 87.3249C125.161 86.3937 125.438 85.4799 125.792 84.5932C126.112 83.7531 126.479 82.9302 126.89 82.1279C127.336 81.2606 127.775 80.6255 128.207 79.9016C129.96 77.1287 131.962 74.5098 134.191 72.0754C136.395 69.6541 138.825 67.4322 141.449 65.4375L144.055 68.0257C142.228 70.3886 140.422 72.9154 138.758 75.4149C137.104 77.8932 135.593 80.4581 134.233 83.0976C133.922 83.7396 133.525 84.4635 133.334 84.9825C133.143 85.5015 132.859 86.1981 132.668 86.8195C132.495 87.386 132.363 87.9633 132.272 88.5473C132.264 88.6382 132.264 88.7295 132.272 88.8204C132.272 88.8682 132.272 88.9024 132.272 88.7522C132.26 88.6011 132.229 88.4521 132.18 88.3083C132.027 87.8241 131.746 87.3865 131.365 87.038C130.731 86.4503 129.887 86.1202 129.007 86.1161C128.614 86.1129 128.224 86.1848 127.86 86.3278C127.513 86.4712 127.506 86.5122 127.513 86.4917L127.782 86.2527L128.632 85.5015L130.324 83.9718C131.45 82.9542 132.576 81.8684 133.638 80.8645L139.098 85.8634Z" fill="#FF8B7B"/>
<path opacity="0.2" d="M159.648 80.584C162.183 83.0015 163.004 87.4131 163.188 91.2374L162.777 91.5447C160.354 89.0508 158.645 85.9911 157.821 82.6669C157.729 82.3049 157.644 81.984 157.58 81.5947L159.648 80.584Z" fill="black"/>
<path d="M134.148 76.9657C133.129 82.1559 132.491 92.8093 135.444 113.918H162.083C162.268 109.971 159.697 90.7332 163.641 72.1512C160.697 71.6013 157.719 71.2386 154.726 71.0654C150.953 70.8532 147.17 70.8532 143.396 71.0654C142.143 71.1746 140.918 71.3453 139.856 71.5366C138.444 71.773 137.141 72.4196 136.121 73.3899C135.101 74.3602 134.413 75.6078 134.148 76.9657Z" fill="#1C6878"/>
<path opacity="0.4" d="M134.148 76.9657C133.129 82.1559 132.491 92.8093 135.444 113.918H162.083C162.268 109.971 159.697 90.7332 163.641 72.1512C160.697 71.6013 157.719 71.2386 154.726 71.0654C150.953 70.8532 147.17 70.8532 143.396 71.0654C142.143 71.1746 140.918 71.3453 139.856 71.5366C138.444 71.773 137.141 72.4196 136.121 73.3899C135.101 74.3602 134.413 75.6078 134.148 76.9657Z" fill="black"/>
<path opacity="0.2" d="M138.22 84.6346L133.412 83.5215C133.256 86.3351 133.249 89.8248 133.461 94.1271C135.678 91.696 138.51 87.9058 138.22 84.6346Z" fill="black"/>
<path opacity="0.2" d="M142.986 224.98L143.24 230.71H148.226L147.971 224.98H142.986Z" fill="black"/>
<path opacity="0.2" d="M180.133 223.518L175.261 224.535L177.782 229.875L182.654 228.858L180.133 223.518Z" fill="black"/>
<path d="M155.689 55.1931C154.415 59.796 153.905 62.5549 150.959 64.4739C146.526 67.349 141.01 64.0437 140.833 59.1677C140.677 54.7697 142.801 47.9816 147.914 47.0528C149.043 46.8414 150.21 46.912 151.302 47.2582C152.395 47.6043 153.378 48.2143 154.157 49.0302C154.937 49.8461 155.487 50.8407 155.755 51.9195C156.023 52.9982 156 54.1252 155.689 55.1931Z" fill="#FF8B7B"/>
<path d="M144.55 55.3711C144.31 54.7564 143.205 49.9965 144.246 48.7605C145.287 47.5244 157.07 48.4122 158.812 50.0648C161.701 52.7965 159.697 55.2618 156.532 58.4237C154.153 60.8002 154.06 63.4772 152.857 63.887C150.732 64.5699 147.489 63.928 146.838 61.7563C146.186 59.5846 144.55 55.3711 144.55 55.3711Z" fill="#263238"/>
<path d="M157.346 44.6564C153.182 42.9423 145.365 44.834 141.152 43.8574C141.096 45.3702 141.611 46.8512 142.6 48.0264C143.589 49.2015 144.987 49.9913 146.533 50.2495C150.034 50.8924 153.591 51.208 157.155 51.1919C161.793 51.0143 160.887 46.111 157.346 44.6564Z" fill="#263238"/>
<path d="M158.005 50.216C159.524 50.3604 161.054 50.0757 162.409 49.3965C163.188 51.2199 158.904 51.7116 158.005 50.216Z" fill="#263238"/>
<path d="M146.781 55.5624C146.685 56.7447 146.188 57.8634 145.365 58.7447C144.274 59.8989 143.141 59.1818 142.95 57.775C142.78 56.5116 143.134 54.3604 144.458 53.7526C145.783 53.1448 146.873 54.1351 146.781 55.5624Z" fill="#FF8B7B"/>
<path d="M144.897 113.918C144.897 113.918 150.562 150.625 153.65 164.378C157.049 179.437 175.269 229.255 175.269 229.255L184.205 227.411C184.205 227.411 171.459 186.805 168.626 165.751C166.438 149.58 162.119 113.925 162.119 113.925L144.897 113.918Z" fill="#1C6878"/>
<path d="M173.137 226.393C173.102 226.393 174.801 229.5 174.801 229.5L184.828 227.41L183.985 224.508L173.137 226.393Z" fill="#263238"/>
<path opacity="0.3" d="M148.466 127.022C155.002 128.258 154.315 151.764 153.529 163.851C151.639 155.308 148.884 138.864 147.001 127.193C147.455 126.976 147.972 126.916 148.466 127.022Z" fill="black"/>
<path d="M135.444 113.918C135.444 113.918 134.736 149.832 135.302 164.454C135.869 179.689 141.385 229.576 141.385 229.576H149.819C149.819 229.576 150.13 180.577 150.527 165.614C150.938 149.3 152.977 113.891 152.977 113.891L135.444 113.918Z" fill="#1C6878"/>
<path d="M139.764 226.359C139.721 226.359 140.238 229.774 140.238 229.774H150.499L150.775 226.755L139.764 226.359Z" fill="#263238"/>
<path d="M144.586 78.5355C146.972 84.7431 132.944 92.0503 132.944 92.0503L126.869 84.5383C126.869 84.5383 130.919 76.7599 135.897 73.2497C142.037 68.9132 142.766 73.8165 144.586 78.5355Z" fill="#1C6878"/>
<path opacity="0.4" d="M144.586 78.5355C146.972 84.7431 132.944 92.0503 132.944 92.0503L126.869 84.5383C126.869 84.5383 130.919 76.7599 135.897 73.2497C142.037 68.9132 142.766 73.8165 144.586 78.5355Z" fill="black"/>
<path d="M199.55 31.414C213.664 31.414 225.106 24.3817 225.106 15.707C225.106 7.03226 213.664 0 199.55 0C185.436 0 173.994 7.03226 173.994 15.707C173.994 24.3817 185.436 31.414 199.55 31.414Z" fill="#1C6878"/>
<path d="M190.323 23.6151C188.639 23.6093 187.012 23.0309 185.727 21.9815C184.442 20.9322 183.582 19.4793 183.299 17.8786C183.009 16.1414 183.411 14.3628 184.423 12.8989C185.436 11.4351 186.984 10.394 188.758 9.98417C190.21 9.65526 191.732 9.77658 193.107 10.3308C194.483 10.8851 195.642 11.844 196.42 13.0709L212.827 9.79978C213.458 9.66857 214.118 9.77136 214.674 10.0877C215.23 10.4041 215.643 10.9108 215.829 11.5071C215.915 11.8199 215.934 12.1463 215.885 12.4665C215.836 12.7866 215.72 13.0937 215.544 13.3692C215.367 13.6446 215.135 13.8825 214.86 14.0683C214.585 14.2542 214.274 14.3842 213.946 14.4504L213.514 14.5324C213.452 14.5461 213.394 14.5723 213.344 14.6092C213.294 14.6461 213.252 14.6929 213.222 14.7465C213.192 14.8001 213.174 14.8593 213.169 14.9201C213.165 14.9809 213.174 15.0419 213.195 15.0992L213.486 15.8231C213.584 16.0565 213.594 16.3159 213.513 16.5557C213.433 16.7955 213.268 17.0003 213.047 17.1343C212.874 17.2416 212.727 17.384 212.617 17.5514C212.507 17.7189 212.436 17.9074 212.409 18.104C212.391 18.3289 212.299 18.5423 212.146 18.7131C211.993 18.8838 211.788 19.003 211.559 19.0533L211.22 19.1147C210.991 19.1582 210.753 19.1291 210.543 19.0319C210.332 18.9347 210.16 18.7745 210.051 18.5752C209.907 18.3333 209.688 18.1413 209.425 18.0266C209.161 17.9119 208.867 17.8802 208.584 17.9362C208.3 17.9922 208.043 18.133 207.847 18.3384C207.652 18.5439 207.528 18.8036 207.495 19.0806C207.475 19.306 207.381 19.5196 207.227 19.6903C207.073 19.8609 206.867 19.9799 206.638 20.0298L206.312 20.0913C206.082 20.1341 205.844 20.1048 205.633 20.0077C205.421 19.9107 205.247 19.7509 205.137 19.5518C205.033 19.3802 204.891 19.2334 204.721 19.1223C204.55 19.0111 204.356 18.9385 204.153 18.9098C203.894 18.8686 203.659 18.7417 203.487 18.5509C203.315 18.3602 203.217 18.1176 203.211 17.865V17.0933C203.209 17.0319 203.193 16.9717 203.164 16.9172C203.134 16.8628 203.092 16.8156 203.041 16.7792C202.992 16.7391 202.933 16.7108 202.87 16.6966C202.808 16.6824 202.742 16.6826 202.68 16.6972L197.418 17.7557C197.201 19.1573 196.541 20.46 195.527 21.4856C194.513 22.5112 193.195 23.2096 191.753 23.4854C191.283 23.5767 190.803 23.6202 190.323 23.6151ZM188.907 10.6398C187.309 11.0103 185.914 11.9492 185.003 13.2686C184.092 14.588 183.731 16.1906 183.993 17.7557C184.27 19.2171 185.081 20.5343 186.279 21.4692C187.476 22.4041 188.981 22.8949 190.52 22.8528C192.06 22.8107 193.534 22.2385 194.674 21.2398C195.815 20.241 196.547 18.8816 196.739 17.4074V17.1616L202.46 16.0211C202.624 15.9867 202.793 15.9879 202.956 16.0245C203.119 16.0611 203.271 16.1323 203.402 16.2328C203.533 16.3317 203.64 16.4567 203.716 16.5994C203.792 16.7421 203.834 16.899 203.841 17.0591V17.8308C203.842 17.9244 203.877 18.0146 203.939 18.0867C204 18.1587 204.086 18.2082 204.181 18.2269C204.49 18.2697 204.786 18.3799 205.045 18.5491C205.304 18.7182 205.519 18.942 205.675 19.2035C205.713 19.2772 205.773 19.3378 205.848 19.377C205.923 19.4161 206.008 19.4319 206.093 19.422L206.419 19.3537C206.501 19.331 206.574 19.2838 206.628 19.2189C206.681 19.154 206.712 19.0745 206.716 18.9918C206.769 18.5744 206.957 18.1835 207.252 17.8744C207.548 17.5653 207.937 17.3536 208.364 17.2691C208.791 17.1846 209.235 17.2316 209.633 17.4034C210.031 17.5753 210.363 17.8633 210.582 18.2269C210.619 18.3007 210.68 18.3611 210.755 18.3992C210.83 18.4374 210.916 18.4512 211 18.4386L211.34 18.3772C211.422 18.3541 211.494 18.3067 211.546 18.2417C211.598 18.1767 211.628 18.0974 211.63 18.0152C211.666 17.7163 211.771 17.4289 211.937 17.1746C212.104 16.9204 212.328 16.7058 212.593 16.547C212.674 16.4965 212.733 16.4199 212.76 16.331C212.788 16.2421 212.781 16.1468 212.742 16.0621L212.459 15.3382C212.399 15.1885 212.373 15.028 212.384 14.8679C212.395 14.7077 212.441 14.5517 212.521 14.4108C212.6 14.2698 212.711 14.1471 212.844 14.0514C212.978 13.9557 213.131 13.8891 213.294 13.8563L213.726 13.7743C213.961 13.7264 214.183 13.6332 214.378 13.5001C214.574 13.3671 214.74 13.1971 214.866 13.0005C214.992 12.8038 215.075 12.5846 215.11 12.3561C215.146 12.1275 215.133 11.8945 215.072 11.671C214.934 11.2426 214.633 10.8803 214.23 10.6562C213.827 10.4322 213.351 10.3629 212.898 10.4622L195.995 13.829L195.868 13.6104C195.184 12.4524 194.131 11.5379 192.866 11.0028C191.6 10.4676 190.19 10.3403 188.843 10.6398H188.907ZM190.323 21.0815C189.165 21.0783 188.052 20.6462 187.215 19.8747C186.378 19.1031 185.88 18.0508 185.824 16.9353C185.768 15.8197 186.158 14.726 186.914 13.88C187.67 13.034 188.734 12.5003 189.887 12.3892C191.039 12.278 192.192 12.5979 193.106 13.2828C194.021 13.9676 194.628 14.9652 194.803 16.0693C194.977 17.1735 194.705 18.3 194.042 19.2162C193.38 20.1325 192.378 20.7684 191.244 20.9927C190.946 21.054 190.642 21.0861 190.337 21.0883L190.323 21.0815ZM190.323 13.0163C190.059 13.0177 189.796 13.0429 189.537 13.0914C188.575 13.3198 187.742 13.8986 187.214 14.7063C186.685 15.5141 186.501 16.4881 186.7 17.4238C186.9 18.3596 187.468 19.1843 188.285 19.7249C189.101 20.2656 190.104 20.4801 191.081 20.3235C191.573 20.2259 192.041 20.0354 192.458 19.7632C192.874 19.4909 193.23 19.1421 193.507 18.7367C193.783 18.3313 193.974 17.8774 194.068 17.4008C194.162 16.9243 194.157 16.4346 194.055 15.9597C193.878 15.1305 193.41 14.3853 192.731 13.8494C192.051 13.3134 191.201 13.0193 190.323 13.0163Z" fill="white"/>
<path opacity="0.6" d="M178.745 40.6206C183.384 40.6206 187.144 38.3091 187.144 35.4577C187.144 32.6064 183.384 30.2949 178.745 30.2949C174.107 30.2949 170.347 32.6064 170.347 35.4577C170.347 38.3091 174.107 40.6206 178.745 40.6206Z" fill="#1C6878"/>
<path opacity="0.3" d="M165.39 42.736C167.295 42.736 168.839 41.7882 168.839 40.619C168.839 39.4498 167.295 38.502 165.39 38.502C163.486 38.502 161.942 39.4498 161.942 40.619C161.942 41.7882 163.486 42.736 165.39 42.736Z" fill="#1C6878"/>
</svg>
