<svg width="40" height="34" viewBox="0 0 40 34" fill="none" xmlns="http://www.w3.org/2000/svg">
<mask id="mask0_654_381" style="mask-type:luminance" maskUnits="userSpaceOnUse" x="0" y="0" width="40" height="34">
<path d="M0 0H40V34H0V0Z" fill="white"/>
</mask>
<g mask="url(#mask0_654_381)">
<path d="M37.0322 2.95637C33.0738 -0.950302 26.6009 -0.950302 22.6499 2.95637L20.0073 5.56564L17.3611 2.95637C13.4028 -0.950302 6.92983 -0.950302 2.9788 2.95637C-0.858915 6.7474 -0.97222 12.8767 2.63524 16.805H11.9444L13.3004 9.81564C13.3626 9.48677 13.644 9.24464 13.9876 9.22657C14.3348 9.20489 14.6382 9.42534 14.7295 9.74698L18.0409 20.8743L19.8428 13.6464C19.9233 13.3356 20.1974 13.1043 20.5227 13.0971C20.848 13.0754 21.1404 13.2742 21.2537 13.585L22.6608 17.535L25.2522 9.72529C25.3545 9.42534 25.6469 9.21573 25.9722 9.22657C26.2975 9.23741 26.579 9.44702 26.6594 9.75782L28.6367 16.805H37.3757C40.9942 12.8767 40.8735 6.7474 37.0322 2.95637ZM27.3611 17.7266L25.8809 12.4647L23.3699 20.025C23.2675 20.325 22.9934 20.5238 22.6791 20.5238H22.6718C22.3575 20.5238 22.0833 20.3358 21.97 20.0359L20.6652 16.3641L18.8012 23.8341C18.7208 24.1522 18.4357 24.3835 18.1031 24.3835H18.0811C17.7559 24.3835 17.4635 24.1738 17.3721 23.8631L14.163 13.0248L13.2602 17.6651C13.1908 18.0048 12.8838 18.2542 12.5402 18.2542H4.07164L5.61404 19.7757L19.9964 33.9713L34.3787 19.7757L35.9174 18.2542H28.0592C27.7339 18.2542 27.4525 18.0338 27.3611 17.7266Z" fill="#CE0000"/>
</g>
</svg>
