<svg width="29" height="32" viewBox="0 0 29 32" fill="none" xmlns="http://www.w3.org/2000/svg">
<path d="M27.8681 29.2857H24.9364V2.71429C24.9364 2.12702 24.6979 1.56381 24.2733 1.14855C23.8488 0.733291 23.2729 0.5 22.6725 0.5H6.32748C5.72707 0.5 5.15125 0.733291 4.72669 1.14855C4.30213 1.56381 4.06362 2.12702 4.06362 2.71429V29.2857H1.13193C0.831722 29.2857 0.543812 29.4024 0.331534 29.61C0.119257 29.8176 0 30.0992 0 30.3929C0 30.6865 0.119257 30.9681 0.331534 31.1757C0.543812 31.3834 0.831722 31.5 1.13193 31.5H27.8681C28.1683 31.5 28.4562 31.3834 28.6685 31.1757C28.8807 30.9681 29 30.6865 29 30.3929C29 30.0992 28.8807 29.8176 28.6685 29.61C28.4562 29.4024 28.1683 29.2857 27.8681 29.2857ZM19.356 20.4286H16.3903V17.4946H19.356V20.4286ZM19.356 14.7489H16.3903V11.815H19.356V14.7489ZM12.0664 5.31607H13.3681V4.04286C13.3681 3.74922 13.4873 3.46762 13.6996 3.25999C13.9119 3.05236 14.1998 2.93571 14.5 2.93571C14.8002 2.93571 15.0881 3.05236 15.3004 3.25999C15.5127 3.46762 15.6319 3.74922 15.6319 4.04286V5.31607H16.9336C17.2339 5.31607 17.5218 5.43272 17.734 5.64035C17.9463 5.84798 18.0656 6.12958 18.0656 6.42321C18.0656 6.71685 17.9463 6.99845 17.734 7.20608C17.5218 7.41371 17.2339 7.53036 16.9336 7.53036H15.6319V8.80357C15.6319 9.0972 15.5127 9.37881 15.3004 9.58644C15.0881 9.79407 14.8002 9.91071 14.5 9.91071C14.1998 9.91071 13.9119 9.79407 13.6996 9.58644C13.4873 9.37881 13.3681 9.0972 13.3681 8.80357V7.53036H12.0664C11.7661 7.53036 11.4782 7.41371 11.266 7.20608C11.0537 6.99845 10.9344 6.71685 10.9344 6.42321C10.9344 6.12958 11.0537 5.84798 11.266 5.64035C11.4782 5.43272 11.7661 5.31607 12.0664 5.31607ZM9.64403 11.815H12.6097V14.7489H9.64403V11.815ZM9.64403 17.4946H12.6097V20.4286H9.64403V17.4946ZM11.6815 29.2857V26.6286C11.7688 25.9548 12.1044 25.3353 12.6254 24.8862C13.1464 24.4371 13.8169 24.1894 14.5113 24.1894C15.2057 24.1894 15.8763 24.4371 16.3972 24.8862C16.9182 25.3353 17.2538 25.9548 17.3411 26.6286V29.2857H11.6815Z" fill="url(#paint0_linear_56_1398)"/>
<defs>
<linearGradient id="paint0_linear_56_1398" x1="4" y1="1.5" x2="27.8293" y2="28.9096" gradientUnits="userSpaceOnUse">
<stop stop-color="#4942E4"/>
<stop offset="0.962489" stop-color="#4942E4"/>
</linearGradient>
</defs>
</svg>
