<svg width="21" height="27" viewBox="0 0 21 27" fill="none" xmlns="http://www.w3.org/2000/svg">
<mask id="mask0_309_14169" style="mask-type:luminance" maskUnits="userSpaceOnUse" x="0" y="0" width="21" height="27">
<path d="M0 0H21V27H0V0Z" fill="white"/>
</mask>
<g mask="url(#mask0_309_14169)">
<path d="M10.4521 -0.046875C9.77539 -0.046875 9.10205 0.0170461 8.43555 0.14169C7.77246 0.266335 7.12646 0.451705 6.49756 0.697798C5.87207 0.940696 5.27393 1.24112 4.70996 1.59588C4.146 1.95384 3.62305 2.35653 3.14453 2.80717C2.66602 3.26101 2.23535 3.7532 1.85938 4.28374C1.47998 4.81428 1.16211 5.37678 0.902344 5.96804C0.642578 6.55611 0.444336 7.16655 0.314453 7.79297C0.181152 8.41939 0.112793 9.0522 0.112793 9.69141C0.112793 17.1349 9.54297 26.103 9.94287 26.4801L10.4521 26.9627L10.9648 26.4801C11.3647 26.103 20.7949 17.1349 20.7949 9.69141C20.7949 9.0522 20.7266 8.41939 20.5933 7.79297C20.46 7.16655 20.2651 6.55611 20.0054 5.96804C19.7456 5.37678 19.4243 4.81428 19.0483 4.28374C18.6724 3.7532 18.2417 3.26101 17.7632 2.80717C17.2812 2.35653 16.7617 1.95384 16.1943 1.59588C15.6304 1.24112 15.0356 0.940696 14.4102 0.697798C13.7812 0.451705 13.1353 0.266335 12.4688 0.14169C11.8057 0.0170461 11.1323 -0.046875 10.4521 -0.046875ZM10.4521 14.9009C10.0898 14.9009 9.73096 14.869 9.37549 14.8018C9.0166 14.7347 8.67139 14.6357 8.33643 14.5046C8.00146 14.3736 7.68359 14.2138 7.37939 14.0252C7.07861 13.8335 6.79834 13.6193 6.54199 13.3764C6.28564 13.1335 6.05664 12.8714 5.85498 12.587C5.65332 12.3026 5.48242 12.0021 5.34229 11.6857C5.20557 11.3693 5.09961 11.0433 5.02783 10.7077C4.95605 10.3722 4.92188 10.0334 4.92188 9.69141C4.92188 9.34943 4.95605 9.01065 5.02783 8.67507C5.09961 8.33949 5.20557 8.01349 5.34229 7.70028C5.48242 7.38388 5.65332 7.08345 5.85498 6.79901C6.05664 6.51456 6.28564 6.24929 6.54199 6.00959C6.79834 5.76669 7.07861 5.54936 7.37939 5.3608C7.68359 5.17223 8.00146 5.00923 8.33643 4.8782C8.67139 4.74716 9.0166 4.64808 9.37549 4.58416C9.73096 4.51705 10.0898 4.48189 10.4521 4.48189C10.8179 4.48189 11.1768 4.51705 11.5322 4.58416C11.8877 4.64808 12.2329 4.74716 12.5713 4.8782C12.9062 5.00923 13.2241 5.17223 13.5249 5.3608C13.8291 5.54936 14.1094 5.76669 14.3657 6.00959C14.6221 6.24929 14.8511 6.51456 15.0527 6.79901C15.2544 7.08345 15.4253 7.38388 15.562 7.70028C15.7021 8.01349 15.8081 8.33949 15.8799 8.67507C15.9482 9.01065 15.9858 9.34943 15.9858 9.69141C15.9858 10.0334 15.9482 10.3722 15.8765 10.7077C15.8047 11.0433 15.7021 11.3693 15.562 11.6857C15.4219 12.0021 15.251 12.3026 15.0493 12.587C14.8477 12.8683 14.6187 13.1335 14.3623 13.3732C14.106 13.6161 13.8257 13.8335 13.5249 14.022C13.2241 14.2138 12.9028 14.3736 12.5679 14.5046C12.2329 14.6357 11.8877 14.7347 11.5322 14.8018C11.1768 14.869 10.8179 14.9009 10.4521 14.9009Z" fill="#858EA9"/>
</g>
</svg>
