<svg width="27" height="28" viewBox="0 0 27 28" fill="none" xmlns="http://www.w3.org/2000/svg">
<mask id="mask0_309_12539" style="mask-type:luminance" maskUnits="userSpaceOnUse" x="0" y="0" width="8" height="8">
<path d="M0 0H7.56514V7.99634H0V0Z" fill="white"/>
</mask>
<g mask="url(#mask0_309_12539)">
<path d="M1.3594 7.90298H5.97766C6.69898 7.90298 7.2825 7.26095 7.2825 6.46728V1.38589C7.2825 0.592225 6.69898 -0.0498047 5.97766 -0.0498047H1.3594C0.638078 -0.0498047 0.0545654 0.592225 0.0545654 1.38589V6.46728C0.0545654 7.26095 0.638078 7.90298 1.3594 7.90298Z" fill="white"/>
</g>
<mask id="mask1_309_12539" style="mask-type:luminance" maskUnits="userSpaceOnUse" x="9" y="2" width="19" height="4">
<path d="M9.44238 2.21484H27.0005V5.51856H9.44238V2.21484Z" fill="white"/>
</mask>
<g mask="url(#mask1_309_12539)">
<path d="M25.7117 2.48926H10.7793C10.058 2.48926 9.47449 3.13129 9.47449 3.92495C9.47449 4.717 10.058 5.35903 10.7793 5.35903H25.7117C26.4315 5.35903 27.0165 4.717 27.0165 3.92495C27.0165 3.13129 26.4315 2.48926 25.7117 2.48926Z" fill="white"/>
</g>
<mask id="mask2_309_12539" style="mask-type:luminance" maskUnits="userSpaceOnUse" x="0" y="9" width="8" height="9">
<path d="M0 9.64844H7.56514V17.9077H0V9.64844Z" fill="white"/>
</mask>
<g mask="url(#mask2_309_12539)">
<path d="M0.0545654 16.4211C0.0545654 17.2067 0.638078 17.8568 1.3594 17.8568H5.97766C6.69898 17.8568 7.2825 17.2067 7.2825 16.4211V11.3317C7.2825 10.5461 6.69898 9.896 5.97766 9.896H1.3594C0.638078 9.896 0.0545654 10.5461 0.0545654 11.3317V16.4211Z" fill="white"/>
</g>
<mask id="mask3_309_12539" style="mask-type:luminance" maskUnits="userSpaceOnUse" x="9" y="12" width="19" height="4">
<path d="M9.44238 12.1289H27.0005V15.4326H9.44238V12.1289Z" fill="white"/>
</mask>
<g mask="url(#mask3_309_12539)">
<path d="M25.7117 12.4414H10.7793C10.058 12.4414 9.47449 13.0834 9.47449 13.8771C9.47449 14.6692 10.058 15.3112 10.7793 15.3112H25.7117C26.4315 15.3112 27.0165 14.6692 27.0165 13.8771C27.0165 13.0834 26.4315 12.4414 25.7117 12.4414Z" fill="white"/>
</g>
<mask id="mask4_309_12539" style="mask-type:luminance" maskUnits="userSpaceOnUse" x="0" y="19" width="8" height="9">
<path d="M0 19.5625H7.56514V27.8218H0V19.5625Z" fill="white"/>
</mask>
<g mask="url(#mask4_309_12539)">
<path d="M0.0545654 26.3638C0.0545654 27.1574 0.638078 27.7995 1.3594 27.7995H5.97766C6.69898 27.7995 7.2825 27.1574 7.2825 26.3638V21.2824C7.2825 20.4887 6.69898 19.8467 5.97766 19.8467H1.3594C0.638078 19.8467 0.0545654 20.4887 0.0545654 21.2824V26.3638Z" fill="white"/>
</g>
<mask id="mask5_309_12539" style="mask-type:luminance" maskUnits="userSpaceOnUse" x="9" y="22" width="19" height="4">
<path d="M9.44238 22.0352H27.0005V25.3389H9.44238V22.0352Z" fill="white"/>
</mask>
<g mask="url(#mask5_309_12539)">
<path d="M25.7117 22.3901H10.7793C10.058 22.3901 9.47449 23.0322 9.47449 23.8242C9.47449 24.6179 10.058 25.2599 10.7793 25.2599H25.7117C26.4315 25.2599 27.0165 24.6179 27.0165 23.8242C27.0165 23.0322 26.4315 22.3901 25.7117 22.3901Z" fill="white"/>
</g>
</svg>
