<svg width="16" height="20" viewBox="0 0 16 20" fill="none" xmlns="http://www.w3.org/2000/svg">
<path d="M8.27347 2.44792C6.89272 2.44792 5.77344 3.56721 5.77344 4.94792V8.28125C5.77344 9.662 6.89272 10.7813 8.27347 10.7813C9.65414 10.7813 10.7735 9.662 10.7735 8.28125V4.94792C10.7735 3.56721 9.65414 2.44792 8.27347 2.44792ZM8.27347 0.78125C10.5746 0.78125 12.4401 2.64673 12.4401 4.94792V8.28125C12.4401 10.5824 10.5746 12.4479 8.27347 12.4479C5.97225 12.4479 4.10677 10.5824 4.10677 8.28125V4.94792C4.10677 2.64673 5.97225 0.78125 8.27347 0.78125ZM0.819214 9.11458H2.49918C2.90354 11.9415 5.33471 14.1146 8.27347 14.1146C11.2121 14.1146 13.6433 11.9415 14.0477 9.11458H15.7276C15.3434 12.5909 12.5831 15.3512 9.10681 15.7355V19.1146H7.44014V15.7355C3.96376 15.3512 1.20351 12.5909 0.819214 9.11458Z" fill="#858585"/>
</svg>
