<svg width="24" height="24" viewBox="0 0 24 24" fill="none" xmlns="http://www.w3.org/2000/svg">
<path d="M10.845 11.33H5.47C5.33739 11.33 5.21022 11.2773 5.11645 11.1836C5.02268 11.0898 4.97 10.9626 4.97 10.83V7.72C4.97132 6.99902 5.25832 6.30794 5.76813 5.79813C6.27794 5.28832 6.96902 5.00132 7.69 5H10.845C10.9776 5 11.1048 5.05268 11.1986 5.14645C11.2923 5.24021 11.345 5.36739 11.345 5.5V10.83C11.345 10.9626 11.2923 11.0898 11.1986 11.1836C11.1048 11.2773 10.9776 11.33 10.845 11.33ZM5.97 10.33H10.345V6H7.69C7.23383 6 6.79634 6.18121 6.47378 6.50378C6.15122 6.82634 5.97 7.26383 5.97 7.72V10.33ZM18.53 11.33H13.155C13.0224 11.33 12.8952 11.2773 12.8014 11.1836C12.7077 11.0898 12.655 10.9626 12.655 10.83V5.5C12.655 5.36739 12.7077 5.24021 12.8014 5.14645C12.8952 5.05268 13.0224 5 13.155 5H16.31C17.031 5.00132 17.7221 5.28832 18.2319 5.79813C18.7417 6.30794 19.0287 6.99902 19.03 7.72V10.83C19.03 10.9626 18.9773 11.0898 18.8836 11.1836C18.7898 11.2773 18.6626 11.33 18.53 11.33ZM13.655 10.33H18.03V7.72C18.03 7.26383 17.8488 6.82634 17.5262 6.50378C17.2037 6.18121 16.7662 6 16.31 6H13.655V10.33ZM10.845 19H7.69C6.96902 18.9987 6.27794 18.7117 5.76813 18.2019C5.25832 17.6921 4.97132 17.001 4.97 16.28V13.17C4.97 13.0374 5.02268 12.9102 5.11645 12.8164C5.21022 12.7227 5.33739 12.67 5.47 12.67H10.845C10.9776 12.67 11.1048 12.7227 11.1986 12.8164C11.2923 12.9102 11.345 13.0374 11.345 13.17V18.5C11.345 18.6326 11.2923 18.7598 11.1986 18.8536C11.1048 18.9473 10.9776 19 10.845 19ZM5.97 13.67V16.28C5.97 16.7362 6.15122 17.1737 6.47378 17.4962C6.79634 17.8188 7.23383 18 7.69 18H10.345V13.67H5.97ZM16.31 19H13.155C13.0224 19 12.8952 18.9473 12.8014 18.8536C12.7077 18.7598 12.655 18.6326 12.655 18.5V13.17C12.655 13.0374 12.7077 12.9102 12.8014 12.8164C12.8952 12.7227 13.0224 12.67 13.155 12.67H18.53C18.6626 12.67 18.7898 12.7227 18.8836 12.8164C18.9773 12.9102 19.03 13.0374 19.03 13.17V16.28C19.0287 17.001 18.7417 17.6921 18.2319 18.2019C17.7221 18.7117 17.031 18.9987 16.31 19ZM13.655 18H16.31C16.7662 18 17.2037 17.8188 17.5262 17.4962C17.8488 17.1737 18.03 16.7362 18.03 16.28V13.67H13.655V18Z" fill="black"/>
</svg>
