<svg width="16" height="14" viewBox="0 0 16 14" fill="none" xmlns="http://www.w3.org/2000/svg">
<path d="M6.9404 0.447266C3.38926 0.447266 0.5 3.0698 0.5 6.29312C0.5 9.51662 3.38926 12.139 6.9404 12.139C10.4917 12.139 13.3808 9.51662 13.3808 6.29312C13.3808 3.0698 10.4917 0.447266 6.9404 0.447266ZM6.9404 11.0598C4.0448 11.0598 1.689 8.92144 1.689 6.29315C1.689 3.66485 4.0448 1.5265 6.9404 1.5265C9.836 1.5265 12.1918 3.66483 12.1918 6.29312C12.1918 8.92142 9.836 11.0598 6.9404 11.0598Z" fill="#677294"/>
<path d="M14.9506 12.8008L11.5422 9.70694C11.3099 9.49613 10.9338 9.49613 10.7015 9.70694C10.4693 9.91757 10.4693 10.2593 10.7015 10.47L14.11 13.5638C14.2261 13.6692 14.3781 13.7219 14.5303 13.7219C14.6823 13.7219 14.8345 13.6692 14.9506 13.5638C15.1829 13.3532 15.1829 13.0114 14.9506 12.8008Z" fill="#677294"/>
</svg>
