<svg width="287" height="257" viewBox="0 0 287 257" fill="none" xmlns="http://www.w3.org/2000/svg">
<circle cx="133" cy="143" r="62" fill="#0EBE7E"/>
<path fill-rule="evenodd" clip-rule="evenodd" d="M148.835 129.477L133.5 123.119C133.116 122.96 132.684 122.96 132.3 123.119L116.965 129.477C116.381 129.719 116 130.289 116 130.92V138.649C116 149.29 122.441 158.863 132.309 162.884C132.688 163.039 133.112 163.039 133.491 162.884C143.358 158.863 149.8 149.29 149.8 138.649V130.92C149.8 130.289 149.419 129.719 148.835 129.477ZM131.992 145.174L139.898 137.28C140.617 136.563 141.781 136.562 142.5 137.28C143.218 137.997 143.218 139.16 142.5 139.877L133.293 149.071C132.574 149.788 131.41 149.788 130.691 149.071L125.551 143.937C124.832 143.22 124.832 142.057 125.551 141.34C126.269 140.623 127.434 140.623 128.152 141.34L131.992 145.174Z" fill="white"/>
<mask id="mask0_494_44511" style="mask-type:luminance" maskUnits="userSpaceOnUse" x="223" y="146" width="64" height="68">
<path d="M223.493 146.963H286.499V213.651H223.493V146.963Z" fill="white"/>
</mask>
<g mask="url(#mask0_494_44511)">
<path d="M250.47 146.996H259.948C261.677 146.996 263.247 147.745 264.385 148.954L264.459 149.045C265.557 150.248 266.234 151.879 266.234 153.674V168.548H280.226C281.955 168.548 283.525 169.299 284.663 170.506C285.805 171.722 286.511 173.39 286.511 175.228V185.295C286.511 187.133 285.805 188.806 284.663 190.015L284.583 190.096C283.451 191.256 281.915 191.975 280.226 191.975H266.234V206.854C266.234 208.685 265.523 210.353 264.385 211.563L264.379 211.567C263.241 212.777 261.671 213.527 259.948 213.527H250.47C248.747 213.527 247.177 212.777 246.033 211.563V211.567C244.897 210.36 244.191 208.691 244.191 206.854V191.975H230.192C228.467 191.975 226.897 191.225 225.761 190.015H225.755C224.617 188.806 223.913 187.133 223.913 185.295V175.228C223.913 173.39 224.617 171.722 225.755 170.506C226.893 169.299 228.463 168.548 230.192 168.548H244.191V153.674C244.191 151.836 244.897 150.164 246.033 148.954L246.119 148.876C247.251 147.713 248.787 146.996 250.47 146.996ZM259.948 149.878H250.47C249.517 149.878 248.648 150.28 248.007 150.929L247.951 150.993C247.301 151.68 246.899 152.629 246.899 153.674V169.99C246.899 170.787 246.292 171.43 245.542 171.43H230.192C229.213 171.43 228.32 171.859 227.673 172.544C227.023 173.236 226.621 174.181 226.621 175.228V185.295C226.621 186.34 227.023 187.292 227.673 187.977L227.667 187.983C228.314 188.67 229.207 189.091 230.192 189.091H245.542C246.292 189.091 246.899 189.74 246.899 190.533V206.854C246.899 207.894 247.301 208.843 247.951 209.531V209.535C248.592 210.222 249.487 210.649 250.47 210.649H259.948C260.931 210.649 261.827 210.222 262.471 209.535C263.118 208.843 263.52 207.894 263.52 206.854V190.533C263.52 189.74 264.127 189.091 264.877 189.091H280.226C281.181 189.091 282.051 188.691 282.695 188.04L282.751 187.977C283.396 187.292 283.798 186.34 283.798 185.295V175.228C283.798 174.181 283.396 173.236 282.751 172.544C282.1 171.859 281.211 171.43 280.226 171.43H264.877C264.127 171.43 263.52 170.787 263.52 169.99V153.674C263.52 152.661 263.144 151.737 262.527 151.05L262.467 150.993C261.821 150.305 260.927 149.878 259.948 149.878Z" fill="#1C6878"/>
</g>
<mask id="mask1_494_44511" style="mask-type:luminance" maskUnits="userSpaceOnUse" x="37" y="0" width="64" height="67">
<path d="M37 0H100.006V66.6876H37V0Z" fill="white"/>
</mask>
<g mask="url(#mask1_494_44511)">
<path d="M63.9768 0.0332031H73.4551C75.1841 0.0332031 76.7539 0.781766 77.8919 1.99131L77.9655 2.08223C79.0638 3.28543 79.7402 4.91578 79.7402 6.71106V21.585H93.733C95.4619 21.585 97.0317 22.3357 98.1697 23.5431C99.3118 24.759 100.018 26.4274 100.018 28.265V38.3325C100.018 40.1701 99.3118 41.8427 98.1697 43.0523L98.0902 43.1326C96.9581 44.2935 95.4221 45.0125 93.733 45.0125H79.7402V59.8907C79.7402 61.7219 79.0299 63.3903 77.8919 64.5999L77.8859 64.6041C76.7479 65.8137 75.1781 66.5643 73.4551 66.5643H63.9768C62.2538 66.5643 60.684 65.8137 59.54 64.5999V64.6041C58.4039 63.3967 57.6976 61.7283 57.6976 59.8907V45.0125H43.6989C41.974 45.0125 40.4042 44.2618 39.2681 43.0523H39.2622C38.1241 41.8427 37.4198 40.1701 37.4198 38.3325V28.265C37.4198 26.4274 38.1241 24.759 39.2622 23.5431C40.4002 22.3357 41.97 21.585 43.6989 21.585H57.6976V6.71106C57.6976 4.87348 58.4039 3.20085 59.54 1.99131L59.6255 1.91307C60.7576 0.750047 62.2936 0.0332031 63.9768 0.0332031ZM73.4551 2.91538H63.9768C63.0237 2.91538 62.1543 3.31715 61.5137 3.96633L61.4579 4.02977C60.8074 4.71701 60.4055 5.66645 60.4055 6.71106V23.0272C60.4055 23.8244 59.7986 24.4672 59.0486 24.4672H43.6989C42.72 24.4672 41.8267 24.8965 41.1801 25.5816C40.5295 26.2731 40.1276 27.2183 40.1276 28.265V38.3325C40.1276 39.3771 40.5295 40.3287 41.1801 41.0138L41.1741 41.0202C41.8208 41.7074 42.7141 42.1282 43.6989 42.1282H59.0486C59.7986 42.1282 60.4055 42.7774 60.4055 43.5704V59.8907C60.4055 60.9311 60.8074 61.8805 61.4579 62.5678V62.572C62.0986 63.2592 62.9939 63.6864 63.9768 63.6864H73.4551C74.438 63.6864 75.3333 63.2592 75.9779 62.572C76.6245 61.8805 77.0264 60.9311 77.0264 59.8907V43.5704C77.0264 42.7774 77.6333 42.1282 78.3833 42.1282H93.733C94.688 42.1282 95.5574 41.7286 96.202 41.0773L96.2577 41.0138C96.9024 40.3287 97.3043 39.3771 97.3043 38.3325V28.265C97.3043 27.2183 96.9024 26.2731 96.2577 25.5816C95.6072 24.8965 94.7178 24.4672 93.733 24.4672H78.3833C77.6333 24.4672 77.0264 23.8244 77.0264 23.0272V6.71106C77.0264 5.69817 76.6504 4.7741 76.0336 4.08686L75.9739 4.02977C75.3273 3.34253 74.434 2.91538 73.4551 2.91538Z" fill="#1C6878"/>
</g>
<path d="M191.662 213.434H197.718C198.96 213.434 200.088 213.973 200.902 214.838C201.717 215.703 202.225 216.902 202.225 218.217V227.208H210.684C211.926 227.208 213.054 227.747 213.868 228.618C214.683 229.483 215.189 230.682 215.189 231.998V238.439C215.189 239.758 214.683 240.951 213.868 241.822C213.054 242.689 211.926 243.228 210.684 243.228H202.225V252.219C202.225 253.532 201.717 254.731 200.902 255.598C200.088 256.47 198.96 257.007 197.718 257.007H191.662C190.42 257.007 189.292 256.47 188.479 255.598C187.663 254.731 187.158 253.532 187.158 252.219V243.228H178.696C177.454 243.228 176.326 242.689 175.512 241.822C174.697 240.951 174.191 239.758 174.191 238.439V231.998C174.191 230.682 174.697 229.483 175.512 228.618C176.326 227.747 177.454 227.208 178.696 227.208H187.158V218.217C187.158 216.902 187.663 215.703 188.479 214.838C189.292 213.973 190.42 213.434 191.662 213.434ZM197.718 216.312H191.662C191.171 216.312 190.719 216.527 190.397 216.876C190.068 217.219 189.869 217.694 189.869 218.217V228.65C189.869 229.447 189.259 230.09 188.512 230.09H178.696C178.204 230.09 177.753 230.308 177.43 230.651C177.106 230.999 176.903 231.475 176.903 231.998V238.439C176.903 238.961 177.106 239.437 177.43 239.786C177.757 240.128 178.204 240.344 178.696 240.344H188.512C189.259 240.344 189.869 240.989 189.869 241.786V252.219C189.869 252.742 190.068 253.217 190.397 253.564C190.719 253.909 191.171 254.125 191.662 254.125H197.718C198.21 254.125 198.661 253.909 198.986 253.564C199.312 253.217 199.517 252.742 199.517 252.219V241.786C199.517 240.989 200.122 240.344 200.868 240.344H210.684C211.176 240.344 211.627 240.128 211.95 239.786C212.278 239.437 212.477 238.961 212.477 238.439V231.998C212.477 231.475 212.278 230.999 211.95 230.651C211.627 230.308 211.176 230.09 210.684 230.09H200.868C200.122 230.09 199.517 229.447 199.517 228.65V218.217C199.517 217.694 199.312 217.219 198.986 216.876C198.661 216.527 198.21 216.312 197.718 216.312Z" fill="#1C6878"/>
<path d="M17.4705 88H23.5268C24.7683 88 25.8964 88.5392 26.7102 89.4041C27.5259 90.2689 28.0332 91.4679 28.0332 92.7832V101.774H36.4929C37.7344 101.774 38.8625 102.314 39.6763 103.185C40.492 104.05 40.9974 105.249 40.9974 106.564V113.005C40.9974 114.324 40.492 115.517 39.6763 116.388C38.8625 117.255 37.7344 117.794 36.4929 117.794H28.0332V126.786C28.0332 128.099 27.5259 129.298 26.7102 130.165C25.8964 131.036 24.7683 131.573 23.5268 131.573H17.4705C16.229 131.573 15.1009 131.036 14.2872 130.165C13.4715 129.298 12.9661 128.099 12.9661 126.786V117.794H4.50442C3.26292 117.794 2.13482 117.255 1.32108 116.388C0.505354 115.517 0 114.324 0 113.005V106.564C0 105.249 0.505354 104.05 1.32108 103.185C2.13482 102.314 3.26292 101.774 4.50442 101.774H12.9661V92.7832C12.9661 91.4679 13.4715 90.2689 14.2872 89.4041C15.1009 88.5392 16.229 88 17.4705 88ZM23.5268 90.8779H17.4705C16.9791 90.8779 16.5275 91.0936 16.2052 91.4425C15.8769 91.7851 15.6779 92.2609 15.6779 92.7832V103.217C15.6779 104.014 15.0671 104.657 14.321 104.657H4.50442C4.01299 104.657 3.56135 104.874 3.23904 105.217C2.91474 105.566 2.7118 106.042 2.7118 106.564V113.005C2.7118 113.527 2.91474 114.003 3.23904 114.352C3.56533 114.694 4.01299 114.91 4.50442 114.91H14.321C15.0671 114.91 15.6779 115.555 15.6779 116.352V126.786C15.6779 127.308 15.8769 127.784 16.2052 128.131C16.5275 128.475 16.9791 128.691 17.4705 128.691H23.5268C24.0182 128.691 24.4699 128.475 24.7942 128.131C25.1205 127.784 25.3254 127.308 25.3254 126.786V116.352C25.3254 115.555 25.9302 114.91 26.6763 114.91H36.4929C36.9844 114.91 37.436 114.694 37.7583 114.352C38.0866 114.003 38.2855 113.527 38.2855 113.005V106.564C38.2855 106.042 38.0866 105.566 37.7583 105.217C37.436 104.874 36.9844 104.657 36.4929 104.657H26.6763C25.9302 104.657 25.3254 104.014 25.3254 103.217V92.7832C25.3254 92.2609 25.1205 91.7851 24.7942 91.4425C24.4699 91.0936 24.0182 90.8779 23.5268 90.8779Z" fill="#1C6878"/>
</svg>
