<svg width="44" height="45" viewBox="0 0 44 45" fill="none" xmlns="http://www.w3.org/2000/svg">
<mask id="mask0_378_9731" style="mask-type:luminance" maskUnits="userSpaceOnUse" x="0" y="0" width="32" height="39">
<path d="M0 0H31.1667V38.125H0V0Z" fill="white"/>
</mask>
<g mask="url(#mask0_378_9731)">
<path d="M30.3455 21.958V6.07422C30.3455 5.66406 30.1832 5.26856 29.8967 4.97559L25.4805 0.458984C25.194 0.166014 24.8073 0 24.4015 0H2.27734C1.01693 0 0 1.04004 0 2.3291V35.6885C0 36.9775 1.01693 38.0176 2.27734 38.0176H22.191L30.3455 21.958Z" fill="#C3C9D3"/>
</g>
<path d="M9.86381 12.4111H5.30912C4.47362 12.4111 3.79089 11.7178 3.79089 10.8633V6.20508C3.79089 5.35059 4.47362 4.65234 5.30912 4.65234H9.86381C10.6993 4.65234 11.3773 5.35059 11.3773 6.20508V10.8633C11.3773 11.7178 10.6993 12.4111 9.86381 12.4111Z" fill="#EDF0F2"/>
<path d="M9.86381 23.2764H5.30912C4.47362 23.2764 3.79089 22.583 3.79089 21.7236V17.0703C3.79089 16.2109 4.47362 15.5176 5.30912 15.5176H9.86381C10.6993 15.5176 11.3773 16.2109 11.3773 17.0703V21.7236C11.3773 22.583 10.6993 23.2764 9.86381 23.2764Z" fill="#EDF0F2"/>
<path d="M9.86381 34.1357H5.30912C4.47362 34.1357 3.79089 33.4424 3.79089 32.5879V27.9297C3.79089 27.0752 4.47362 26.377 5.30912 26.377H9.86381C10.6993 26.377 11.3773 27.0752 11.3773 27.9297V32.5879C11.3773 33.4424 10.6993 34.1357 9.86381 34.1357Z" fill="#EDF0F2"/>
<mask id="mask1_378_9731" style="mask-type:luminance" maskUnits="userSpaceOnUse" x="20" y="20" width="24" height="25">
<path d="M20.1666 20.625H44V45H20.1666V20.625Z" fill="white"/>
</mask>
<g mask="url(#mask1_378_9731)">
<path d="M43.9998 33.3633C43.9998 39.7891 38.9057 44.999 32.6227 44.999C26.3349 44.999 21.2407 39.7891 21.2407 33.3633C21.2407 26.9326 26.3349 21.7227 32.6227 21.7227C38.9057 21.7227 43.9998 26.9326 43.9998 33.3633Z" fill="#006D77"/>
</g>
<mask id="mask2_378_9731" style="mask-type:luminance" maskUnits="userSpaceOnUse" x="23" y="0" width="9" height="6">
<path d="M23.8334 0H31.1667V5.625H23.8334V0Z" fill="white"/>
</mask>
<g mask="url(#mask2_378_9731)">
<path d="M30.2072 5.42871H27.3092C26.0488 5.42871 25.0366 4.38867 25.0366 3.10449V0.140625C25.1989 0.21875 25.3517 0.321288 25.4806 0.458008L29.8969 4.97461C30.0258 5.10645 30.1308 5.2627 30.2072 5.42871Z" fill="#7C8798"/>
</g>
<path d="M8.34539 10.0884C8.14965 10.0884 7.95867 10.0103 7.81067 9.85889L6.29244 8.30615C5.99643 8.00342 5.99643 7.51514 6.29244 7.2124C6.58845 6.90967 7.06588 6.90967 7.36188 7.2124L8.34539 8.21338L13.1197 3.33057C13.4157 3.02783 13.8931 3.02783 14.1891 3.33057C14.4899 3.6333 14.4899 4.12646 14.1891 4.4292L8.88011 9.85889C8.73211 10.0103 8.54114 10.0884 8.34539 10.0884Z" fill="#1E6E7E"/>
<path d="M8.34539 20.9468C8.14965 20.9468 7.95867 20.8735 7.81067 20.7222L6.29244 19.1694C5.99643 18.8667 5.99643 18.3735 6.29244 18.0708C6.58845 17.7681 7.06588 17.7681 7.36188 18.0708L8.34539 19.0767L13.1197 14.1938C13.4157 13.8911 13.8931 13.8911 14.1891 14.1938C14.4899 14.4966 14.4899 14.9849 14.1891 15.2876L8.88011 20.7222C8.73211 20.8735 8.54114 20.9468 8.34539 20.9468Z" fill="#1E6E7E"/>
<path d="M8.34539 31.811C8.14965 31.811 7.95867 31.7329 7.81067 31.5815L6.29244 30.0288C5.99643 29.7261 5.99643 29.2378 6.29244 28.9351C6.58845 28.6323 7.06588 28.6323 7.36188 28.9351L8.34539 29.936L13.1197 25.0532C13.4157 24.7505 13.8931 24.7505 14.1891 25.0532C14.4899 25.356 14.4899 25.8491 14.1891 26.1519L8.88011 31.5815C8.73211 31.7329 8.54114 31.811 8.34539 31.811Z" fill="#1E6E7E"/>
<path d="M30.3454 39.5706C30.1448 39.5706 29.9491 39.4876 29.8106 39.3411L27.5333 37.012C27.2373 36.7093 27.2373 36.221 27.5333 35.9183C27.8293 35.6155 28.3067 35.6155 28.6075 35.9183L30.2164 37.5638L36.5329 27.515C36.762 27.1536 37.2299 27.0462 37.5832 27.2806C37.9317 27.5101 38.0368 27.9935 37.8076 28.3499L30.9803 39.2142C30.8562 39.4095 30.6509 39.5413 30.4265 39.5609C30.3979 39.5706 30.3692 39.5706 30.3454 39.5706Z" fill="#EDF0F2"/>
<path d="M21.9999 6.98242H16.6909C16.2707 6.98242 15.9318 6.63574 15.9318 6.20605C15.9318 5.78125 16.2707 5.42969 16.6909 5.42969H21.9999C22.42 5.42969 22.759 5.78125 22.759 6.20605C22.759 6.63574 22.42 6.98242 21.9999 6.98242Z" fill="#6B7788"/>
<path d="M21.2408 10.8633H16.6909C16.2707 10.8633 15.9318 10.5117 15.9318 10.0869C15.9318 9.65723 16.2707 9.31055 16.6909 9.31055H21.2408C21.6609 9.31055 21.9999 9.65723 21.9999 10.0869C21.9999 10.5117 21.6609 10.8633 21.2408 10.8633Z" fill="#6B7788"/>
<path d="M26.5498 17.8477H16.6909C16.2707 17.8477 15.9318 17.4961 15.9318 17.0713C15.9318 16.6416 16.2707 16.2949 16.6909 16.2949H26.5498C26.97 16.2949 27.3089 16.6416 27.3089 17.0713C27.3089 17.4961 26.97 17.8477 26.5498 17.8477Z" fill="#6B7788"/>
<path d="M21.2408 21.7246H16.6909C16.2707 21.7246 15.9318 21.3779 15.9318 20.9482C15.9318 20.5234 16.2707 20.1719 16.6909 20.1719H21.2408C21.6609 20.1719 21.9999 20.5234 21.9999 20.9482C21.9999 21.3779 21.6609 21.7246 21.2408 21.7246Z" fill="#6B7788"/>
<path d="M18.9634 28.7051H16.6909C16.2707 28.7051 15.9318 28.3584 15.9318 27.9287C15.9318 27.5039 16.2707 27.1523 16.6909 27.1523H18.9634C19.3836 27.1523 19.7226 27.5039 19.7226 27.9287C19.7226 28.3584 19.3836 28.7051 18.9634 28.7051Z" fill="#6B7788"/>
<path d="M18.2091 32.5879H16.6909C16.2707 32.5879 15.9318 32.2363 15.9318 31.8115C15.9318 31.3818 16.2707 31.0352 16.6909 31.0352H18.2091C18.6245 31.0352 18.9634 31.3818 18.9634 31.8115C18.9634 32.2363 18.6245 32.5879 18.2091 32.5879Z" fill="#6B7788"/>
</svg>
