<svg width="16" height="15" viewBox="0 0 16 15" fill="none" xmlns="http://www.w3.org/2000/svg">
<mask id="mask0_309_15939" style="mask-type:luminance" maskUnits="userSpaceOnUse" x="0" y="0" width="16" height="15">
<path d="M0 0.902344H16V14.9023H0V0.902344Z" fill="white"/>
</mask>
<g mask="url(#mask0_309_15939)">
<path fill-rule="evenodd" clip-rule="evenodd" d="M15.792 0.902344H0.208029C0.0929898 0.902344 0 0.983715 0 1.08354V14.7211C0 14.821 0.0929898 14.9023 0.208029 14.9023H15.792C15.907 14.9023 16 14.821 16 14.7211V1.08354C16 0.983715 15.907 0.902344 15.792 0.902344ZM14.5 13.5469H12H8.77584V8.08396H14.5V13.5469ZM7.33414 11.8015V13.5391L1.5 13.5469V11.5469V8.08396H7.33414V11.8015ZM14.5 6.6778H8.77584V2.19912H14.5V6.6778ZM7.33414 4.83362V6.6778H4H1.5V2.19912H7.33414V4.83362Z" fill="#FCFCFE"/>
</g>
</svg>
