<svg width="14" height="13" viewBox="0 0 14 13" fill="none" xmlns="http://www.w3.org/2000/svg">
<mask id="mask0_309_11838" style="mask-type:luminance" maskUnits="userSpaceOnUse" x="0" y="0" width="14" height="13">
<path d="M0 0H14V13H0V0Z" fill="white"/>
</mask>
<g mask="url(#mask0_309_11838)">
<path d="M7.29123 0.57758L8.5829 0.132397C8.95443 0.00544398 9.36762 0.13409 9.58984 0.448934L10.3659 1.54412C10.4787 1.70323 10.6454 1.82003 10.8364 1.87419L12.1506 2.24998C12.5291 2.35831 12.7843 2.69854 12.7739 3.0794L12.7374 4.40479C12.7305 4.59945 12.7947 4.78735 12.9162 4.94138L13.753 5.99255C13.9926 6.29555 13.9926 6.71534 13.753 7.01833L12.9162 8.06951C12.7947 8.22185 12.7305 8.41143 12.7374 8.6044L12.7739 9.93149C12.7843 10.3123 12.5291 10.6526 12.1506 10.7609L10.8364 11.135C10.6454 11.1909 10.4787 11.3077 10.3659 11.4668L9.58984 12.5603C9.36762 12.8751 8.95443 13.0054 8.5829 12.8785L7.29123 12.4333C7.102 12.369 6.89714 12.369 6.7079 12.4333L5.41623 12.8785C5.0447 13.0054 4.63151 12.8751 4.40929 12.5603L3.63325 11.4668C3.5204 11.3077 3.35373 11.1909 3.16276 11.135L1.84679 10.7609C1.47005 10.6526 1.21311 10.3123 1.22526 9.93149L1.26172 8.6044C1.26693 8.41143 1.20443 8.22185 1.0829 8.06951L0.246094 7.01833C0.00651036 6.71534 0.00651036 6.29555 0.246094 5.99255L1.0829 4.94138C1.20443 4.78735 1.26693 4.59945 1.26172 4.40479L1.22526 3.0794C1.21311 2.69854 1.47005 2.35831 1.84679 2.24998L3.16276 1.87419C3.35373 1.82003 3.5204 1.70323 3.63325 1.54412L4.40929 0.448934C4.63151 0.13409 5.0447 0.00544398 5.41623 0.132397L6.7079 0.57758C6.89714 0.641903 7.102 0.641903 7.29123 0.57758Z" fill="#0097FF"/>
</g>
<path d="M10.7059 4.3817L9.66084 3.25L5.75142 7.48479L4.34085 5.95592L3.29413 7.08943L4.29599 8.17397L5.75142 9.75L7.20686 8.17397L10.7059 4.3817Z" fill="white"/>
</svg>
