<svg width="26" height="25" viewBox="0 0 26 25" fill="none" xmlns="http://www.w3.org/2000/svg">
<mask id="mask0_30_1971" style="mask-type:luminance" maskUnits="userSpaceOnUse" x="0" y="0" width="26" height="25">
<path d="M0 0H26V25H0V0Z" fill="white"/>
</mask>
<g mask="url(#mask0_30_1971)">
<path fill-rule="evenodd" clip-rule="evenodd" d="M12.9588 -0.00341797C20.1174 -0.00341797 25.9199 5.57592 25.9199 12.4591C25.9199 19.3423 20.1174 24.9235 12.9588 24.9235C5.80031 24.9235 -0.00219727 19.3423 -0.00219727 12.4591C-0.00219727 5.57592 5.80031 -0.00341797 12.9588 -0.00341797ZM9.54932 10.72C9.52891 9.47325 12.4988 8.78832 13.8455 9.13079C17.2606 9.99944 12.3189 17.6354 13.174 18.7644C13.6489 19.3923 15.8063 18.8982 15.8063 19.469C15.8063 20.0397 14.3408 21.5238 11.8458 21.0297C9.35083 20.5356 10.0242 18.859 10.3618 17.5069C10.6976 16.1549 12.1426 12.4235 12.1426 11.776C12.1426 9.74437 9.51593 11.2551 9.54746 10.72H9.54932ZM14.4169 3.78868C15.4947 3.78868 16.3684 4.62879 16.3684 5.6651C16.3684 6.69964 15.4947 7.53975 14.4169 7.53975C13.3391 7.53975 12.4654 6.69964 12.4654 5.6651C12.4654 4.62879 13.3391 3.78868 14.4169 3.78868Z" fill="#4942E4"/>
</g>
</svg>
