<svg width="46" height="48" viewBox="0 0 46 48" fill="none" xmlns="http://www.w3.org/2000/svg">
<path fill-rule="evenodd" clip-rule="evenodd" d="M23 0C23.8825 0 24.7516 0.0754875 25.6139 0.22646C26.483 0.371628 27.3184 0.59228 28.1336 0.882615C28.9487 1.17295 29.7168 1.52715 30.4511 1.95104C31.1854 2.37493 31.8591 2.85108 32.4856 3.3911C33.1054 3.92531 33.6646 4.51179 34.1564 5.13891C34.6415 5.77184 35.0524 6.43961 35.396 7.14221C35.7329 7.83901 35.9821 8.56485 36.1573 9.3081C36.3257 10.0514 36.4133 10.8062 36.4133 11.5669C36.4133 11.5901 36.4133 11.6192 36.4133 11.6424L23.0943 23.128C23.0606 23.128 23.0337 23.128 23 23.128C22.1175 23.128 21.2484 23.0525 20.3793 22.9073C19.517 22.7564 18.6816 22.5357 17.8664 22.2454C17.0513 21.955 16.2765 21.6008 15.5489 21.177C14.8146 20.7589 14.1342 20.2769 13.5144 19.7427C12.8878 19.2027 12.3354 18.622 11.8436 17.9891C11.3585 17.3562 10.9408 16.6884 10.604 15.9916C10.2671 15.289 10.0111 14.5631 9.84271 13.8199C9.66754 13.0766 9.5867 12.3218 9.5867 11.5669C9.5867 10.8062 9.66754 10.0514 9.84271 9.3081C10.0111 8.56485 10.2671 7.83901 10.604 7.14221C10.9408 6.43961 11.3585 5.77184 11.8436 5.13891C12.3354 4.51179 12.8878 3.92531 13.5144 3.3911C14.1342 2.85108 14.8146 2.37493 15.5489 1.95104C16.2765 1.52715 17.0513 1.17295 17.8664 0.882615C18.6816 0.59228 19.517 0.371628 20.3793 0.22646C21.2484 0.0754875 22.1175 0 23 0ZM16.6942 30.6186L18.7759 28.8302L23.9432 33.2839L21.8682 35.0781C21.7537 35.171 21.6189 35.2233 21.4572 35.2233C21.2955 35.2233 21.1608 35.171 21.0463 35.0781L16.6942 31.327C16.5797 31.2283 16.5258 31.1122 16.5258 30.9728C16.5258 30.8335 16.5797 30.7173 16.6942 30.6186ZM19.9212 27.8372L25.0885 32.2967L44.9288 15.1961C45.2724 14.8999 45.5351 14.5631 45.717 14.1741C45.9057 13.7909 46 13.3844 46 12.9721C46 12.554 45.9057 12.1476 45.717 11.7643C45.5351 11.3811 45.2657 11.0385 44.9288 10.7424C44.5852 10.4462 44.1878 10.2198 43.7431 10.063C43.2917 9.90038 42.8269 9.81909 42.3418 9.81909C41.8568 9.81909 41.3919 9.90038 40.9473 10.0572C40.4959 10.2198 40.0984 10.4462 39.7616 10.7424L19.9212 27.8372ZM41.6344 12.5889L33.4827 19.615C33.3278 19.7485 33.2469 19.9169 33.2469 20.1085C33.2469 20.3001 33.3278 20.4685 33.4827 20.6021C33.6444 20.7415 33.833 20.8111 34.0621 20.8111C34.2844 20.8111 34.4731 20.7415 34.6347 20.6021L42.7865 13.576C42.9482 13.4425 43.0223 13.2741 43.0223 13.0824C43.0223 12.8908 42.9482 12.7224 42.7865 12.5889C42.6248 12.4495 42.4361 12.3856 42.2138 12.3856C41.9848 12.3856 41.7961 12.4495 41.6344 12.5889ZM19.2408 35.4962L16.2024 32.8832L0 46.8483C1.81224 48.4103 7.38371 48.5496 10.0785 46.227L15.7039 41.3784C15.8251 41.2739 15.8386 38.9628 15.9329 38.3473L19.2408 35.4962ZM20.029 4.94729V9.00035H15.3199V14.1276H20.029V18.1865H25.971V14.1276H30.6801V9.00035H25.971V4.94729H20.029Z" fill="#1E6E7E"/>
</svg>
