<svg width="24" height="24" viewBox="0 0 24 24" fill="none" xmlns="http://www.w3.org/2000/svg">
<mask id="mask0_338_1434" style="mask-type:luminance" maskUnits="userSpaceOnUse" x="0" y="1" width="24" height="24">
<path d="M0 1.75488H24V24.0009H0V1.75488Z" fill="white"/>
</mask>
<g mask="url(#mask0_338_1434)">
<path d="M21.7963 2.125H20.2839V3.90283C20.2839 4.85965 19.4876 5.65596 18.5309 5.65596H18.4259C17.4691 5.65596 16.6728 4.85965 16.6728 3.90283V2.125H7.14196V3.90283C7.14196 4.85965 6.34567 5.65596 5.39042 5.65596H5.28394C4.32869 5.65596 3.53085 4.85965 3.53085 3.90283V2.125H2.20369C1.00925 2.125 0.0540009 3.08027 0.0540009 4.27475V21.8509C0.0540009 23.0453 1.00925 24.0006 2.20369 24.0006H19.1682L19.4074 23.9482C19.4614 23.9219 19.5401 23.8679 19.5941 23.8154L23.5494 19.6471C23.5494 19.6471 23.5494 19.6209 23.5756 19.6209C23.8148 19.3817 23.9475 19.036 23.9475 18.6918V4.27475C23.9475 3.08027 22.9923 2.125 21.7963 2.125ZM22.7268 18.877L19.0895 22.6734V19.8061C19.0895 19.2489 19.5401 18.7983 20.0972 18.7983H22.7793C22.7531 18.8245 22.7268 18.8508 22.7268 18.877ZM22.8055 17.6563H20.0972C18.9028 17.6563 17.9475 18.6116 17.9475 19.8061V22.8339H2.20369C1.64659 22.8339 1.19598 22.3818 1.19598 21.8246V8.12517H22.7793V17.6563H22.8055Z" fill="#858EA9"/>
</g>
<mask id="mask1_338_1434" style="mask-type:luminance" maskUnits="userSpaceOnUse" x="4" y="0" width="3" height="5">
<path d="M4.07257 0H6.44294V4.91526H4.07257V0Z" fill="white"/>
</mask>
<g mask="url(#mask1_338_1434)">
<path d="M5.39046 4.88594C5.94756 4.88594 6.39818 4.43377 6.39818 3.87665V1.00929C6.39818 0.452173 5.94756 0 5.39046 0H5.28398C4.72688 0 4.27472 0.452173 4.27472 1.00929V3.87665C4.27472 4.43377 4.72688 4.88594 5.28398 4.88594H5.39046Z" fill="#858EA9"/>
</g>
<mask id="mask2_338_1434" style="mask-type:luminance" maskUnits="userSpaceOnUse" x="17" y="0" width="3" height="5">
<path d="M17.1096 0H19.875V4.91526H17.1096V0Z" fill="white"/>
</mask>
<g mask="url(#mask2_338_1434)">
<path d="M18.5309 4.88594C19.0895 4.88594 19.5401 4.43377 19.5401 3.87665V1.00929C19.5401 0.452173 19.0895 0 18.5309 0H18.4259C17.8673 0 17.4167 0.452173 17.4167 1.00929V3.87665C17.4167 4.43377 17.8673 4.88594 18.4259 4.88594H18.5309Z" fill="#858EA9"/>
</g>
<path d="M4.16821 10.5146H6.18673V12.5332H4.16821V10.5146Z" fill="#858EA9"/>
<path d="M8.7346 10.5146H10.7531V12.5332H8.7346V10.5146Z" fill="#858EA9"/>
<path d="M13.3009 10.5146H15.3194V12.5332H13.3009V10.5146Z" fill="#858EA9"/>
<path d="M17.8411 10.5146H19.8596V12.5332H17.8411V10.5146Z" fill="#858EA9"/>
<path d="M4.16821 14.3906H6.18673V16.4077H4.16821V14.3906Z" fill="#858EA9"/>
<path d="M8.7346 14.3906H10.7531V16.4077H8.7346V14.3906Z" fill="#858EA9"/>
<path d="M13.3009 14.3906H15.3194V16.4077H13.3009V14.3906Z" fill="#858EA9"/>
<path d="M17.8411 14.3906H19.8596V16.4077H17.8411V14.3906Z" fill="#858EA9"/>
<path d="M4.16821 18.2939H6.18673V20.311H4.16821V18.2939Z" fill="#858EA9"/>
<path d="M8.7346 18.2939H10.7531V20.311H8.7346V18.2939Z" fill="#858EA9"/>
<path d="M13.3009 18.2939H15.3194V20.311H13.3009V18.2939Z" fill="#858EA9"/>
</svg>
