<svg width="28" height="32" viewBox="0 0 28 32" fill="none" xmlns="http://www.w3.org/2000/svg">
<g filter="url(#filter0_d_30_1925)">
<path d="M21.1417 6.63024C21.0864 6.43334 20.9507 6.27209 20.7613 6.17441C20.8024 5.73099 20.7408 5.18988 20.6351 4.74336C20.5467 4.3759 20.4062 3.96504 20.1916 3.53866C19.9643 3.11539 19.6849 2.66577 19.2919 2.2518C18.9195 1.82233 18.4381 1.43162 17.8967 1.08897C13.1698 -1.85842 6.642 1.62697 7.14863 6.17441C6.95924 6.27364 6.82508 6.43334 6.76984 6.62869C5.65084 6.64885 4.75122 7.46593 4.75122 8.47372C4.75122 9.48305 5.65084 10.3017 6.76984 10.3218C6.85823 10.6397 7.16442 10.8816 7.54794 10.8816C8.00091 10.8816 8.36549 10.5513 8.36549 10.1451V6.80544C8.36549 6.57443 8.23923 6.37597 8.05615 6.24108C8.25974 5.09221 8.86896 3.87666 9.72123 3.12315C10.9728 1.92466 13.1461 1.23161 15.534 1.75411C16.4526 2.02233 17.357 2.47506 18.1114 3.19912C18.951 3.94023 19.6313 5.05034 19.8538 6.24108C19.3709 6.59458 19.5445 6.89847 19.5445 10.1451C19.5445 10.3994 19.6976 10.6118 19.9138 10.7436V11.0273C19.9138 11.2056 19.8633 11.3823 19.7638 11.5343C18.6954 13.17 18.6243 13.3374 17.0097 13.8444C16.5015 14.0041 15.9286 14.0724 15.3494 14.2119C14.8144 13.6925 13.8737 14.0336 13.8737 14.7282C13.8737 15.6042 15.2657 15.8042 15.5356 14.9282C15.927 14.8352 16.3295 14.7794 16.7083 14.6662C18.79 14.0444 19.4719 13.6739 20.5735 11.6087C20.6777 11.4118 20.7329 11.1947 20.7329 10.9746V10.7916C20.9381 10.6955 21.0849 10.5281 21.1417 10.3203C22.2591 10.3001 23.1572 9.48305 23.1572 8.47372C23.1572 7.46593 22.2591 6.6504 21.1417 6.63024Z" fill="#4942E4"/>
<mask id="mask0_30_1925" style="mask-type:luminance" maskUnits="userSpaceOnUse" x="4" y="14" width="20" height="10">
<path d="M4 14.6211H24V23.7361H4V14.6211Z" fill="white"/>
</mask>
<g mask="url(#mask0_30_1925)">
<path d="M13.9574 18.567C14.625 17.646 15.2074 16.8537 15.7787 16.0537C16.4464 15.1157 17.1203 14.8133 18.1762 15.1622C19.5193 15.6072 20.8466 16.1049 22.1471 16.6615C23.2614 17.1374 23.888 17.9902 23.8185 19.2553C23.7838 19.8771 23.8185 20.5019 23.8106 21.1252C23.7869 22.8431 22.9915 23.6431 21.2585 23.6508C19.0221 23.6648 16.7857 23.657 14.5493 23.657C11.9498 23.657 9.35039 23.6633 6.75254 23.6524C4.89332 23.6446 4.10892 22.8648 4.09945 21.0477C4.09471 20.4538 4.12943 19.8585 4.09156 19.2678C4.00949 17.9514 4.69919 17.1064 5.83714 16.6227C7.13764 16.0707 8.47129 15.5917 9.81599 15.1544C10.9634 14.7792 11.3185 14.9467 12.0272 15.925C12.6395 16.7653 13.2551 17.6057 13.9574 18.567Z" fill="#4942E4"/>
</g>
<path d="M18.6954 7.60396C18.5723 9.15285 18.0735 11.1343 16.4195 12.6584C15.0164 13.9515 12.8778 13.984 11.4968 12.6599C9.58551 10.8258 8.98261 8.49236 9.27775 5.97445C9.43242 4.65657 10.25 3.61933 11.6247 3.179C13.6654 2.52162 15.6445 2.4565 17.4422 3.85965C18.4918 4.67828 18.7317 5.80235 18.6954 7.60396Z" fill="#4942E4"/>
</g>
<defs>
<filter id="filter0_d_30_1925" x="0.0849609" y="0" width="27.7388" height="31.6592" filterUnits="userSpaceOnUse" color-interpolation-filters="sRGB">
<feFlood flood-opacity="0" result="BackgroundImageFix"/>
<feColorMatrix in="SourceAlpha" type="matrix" values="0 0 0 0 0 0 0 0 0 0 0 0 0 0 0 0 0 0 127 0" result="hardAlpha"/>
<feOffset dy="4"/>
<feGaussianBlur stdDeviation="2"/>
<feComposite in2="hardAlpha" operator="out"/>
<feColorMatrix type="matrix" values="0 0 0 0 0 0 0 0 0 0 0 0 0 0 0 0 0 0 0.25 0"/>
<feBlend mode="normal" in2="BackgroundImageFix" result="effect1_dropShadow_30_1925"/>
<feBlend mode="normal" in="SourceGraphic" in2="effect1_dropShadow_30_1925" result="shape"/>
</filter>
</defs>
</svg>
