<svg width="29" height="29" viewBox="0 0 29 29" fill="none" xmlns="http://www.w3.org/2000/svg">
<mask id="mask0_309_14062" style="mask-type:luminance" maskUnits="userSpaceOnUse" x="0" y="0" width="29" height="29">
<path d="M0 0H29V29H0V0Z" fill="white"/>
</mask>
<g mask="url(#mask0_309_14062)">
<path d="M12.4295 0C9.38032 0 6.90386 2.47645 6.90386 5.52246C6.90386 8.56847 9.38032 11.0481 12.4295 11.0481C15.4755 11.0481 17.9519 8.56847 17.9519 5.52246C17.9519 2.47645 15.4755 0 12.4295 0ZM12.4295 15.1891C8.09017 15.1891 0 17.3226 0 21.4039V23.4744C0 24.239 0.616753 24.8558 1.3814 24.8558H13.1092C13.707 24.8558 14.286 24.6166 14.7108 24.1918L20.6046 18.3012C21.0703 17.8324 20.9098 17.0394 20.2962 16.7877C17.7254 15.7304 14.607 15.1891 12.4295 15.1891ZM26.5235 16.5705C26.3473 16.5705 26.1711 16.6398 26.0358 16.7719L24.6544 18.1533L27.4172 20.9161L28.7986 19.5347C29.0661 19.2673 29.0661 18.8267 28.7986 18.5592L27.0113 16.7719C26.876 16.6398 26.6998 16.5705 26.5235 16.5705ZM23.6789 19.1319L16.5705 26.2372V29H19.3333L26.4386 21.8916L23.6789 19.1319Z" fill="#858EA9"/>
</g>
</svg>
