<svg width="25" height="24" viewBox="0 0 25 24" fill="none" xmlns="http://www.w3.org/2000/svg">
<path d="M0.875 23.2499H5.71875L20.0046 9.42488L15.1608 4.73738L0.875 18.5624V23.2499ZM3.45833 19.5999L15.1608 8.27488L16.3492 9.42488L4.64667 20.7499H3.45833V19.5999ZM20.7279 1.11238C20.6084 0.996502 20.4665 0.904567 20.3102 0.84184C20.154 0.779114 19.9865 0.746826 19.8173 0.746826C19.6481 0.746826 19.4806 0.779114 19.3244 0.84184C19.1681 0.904567 19.0262 0.996502 18.9067 1.11238L16.5429 3.39988L21.3867 8.08738L23.7504 5.79988C23.8702 5.68424 23.9652 5.54688 24.03 5.39566C24.0948 5.24444 24.1282 5.08234 24.1282 4.91863C24.1282 4.75492 24.0948 4.59282 24.03 4.4416C23.9652 4.29038 23.8702 4.15302 23.7504 4.03738L20.7279 1.11238Z" fill="white"/>
</svg>
