<svg width="26" height="16" viewBox="0 0 26 16" fill="none" xmlns="http://www.w3.org/2000/svg">
<mask id="mask0_309_14023" style="mask-type:luminance" maskUnits="userSpaceOnUse" x="0" y="0" width="26" height="9">
<path d="M0.385254 0H25.8089V8.87111H0.385254V0Z" fill="white"/>
</mask>
<g mask="url(#mask0_309_14023)">
<path d="M11.299 8.29298C11.5412 8.45444 11.8091 8.57814 12.0995 8.66408C12.3914 8.75001 12.6893 8.79298 12.9978 8.79298C13.3047 8.79298 13.6042 8.75001 13.8946 8.66408C14.185 8.57814 14.4528 8.45444 14.6966 8.29298L25.4779 1.02344C25.2191 0.703126 24.8881 0.451824 24.4863 0.272136C24.0845 0.0911459 23.6587 0 23.2058 0H2.79279C2.55655 0.001302 2.32332 0.0273438 2.0961 0.0794272C1.86739 0.130209 1.6492 0.207031 1.44306 0.30599C1.23691 0.406251 1.04882 0.526043 0.878788 0.66797C0.707251 0.808595 0.559788 0.967449 0.436401 1.14063L11.299 8.29298Z" fill="#858EA9"/>
</g>
<mask id="mask1_309_14023" style="mask-type:luminance" maskUnits="userSpaceOnUse" x="0" y="2" width="26" height="14">
<path d="M0 2.53711H26V15.9994H0V2.53711Z" fill="white"/>
</mask>
<g mask="url(#mask1_309_14023)">
<path d="M15.8326 9.56642C15.631 9.69923 15.4188 9.81902 15.1946 9.92189C14.9704 10.0261 14.7372 10.1133 14.4964 10.1836C14.2572 10.2552 14.0104 10.3086 13.7606 10.3438C13.5093 10.3802 13.2566 10.3971 13.0023 10.3971C12.748 10.3971 12.4967 10.3802 12.2454 10.3438C11.9941 10.3086 11.7488 10.2552 11.5081 10.1836C11.2673 10.1133 11.0356 10.0261 10.8114 9.92189C10.5872 9.81902 10.3735 9.69923 10.1734 9.56642L0.0090332 2.8776V13.6498C0.0090332 13.8086 0.0270897 13.9649 0.0616983 14.1198C0.0978115 14.2748 0.150476 14.4258 0.221198 14.5716C0.290415 14.7188 0.376184 14.8568 0.478505 14.9883C0.57932 15.1198 0.695184 15.2422 0.82459 15.3542C0.95249 15.4649 1.09393 15.5651 1.24591 15.6537C1.39789 15.7409 1.55889 15.8151 1.72742 15.8763C1.89595 15.9362 2.07049 15.9818 2.24956 16.013C2.42862 16.0443 2.60918 16.0586 2.79276 16.0586H23.2057C23.3878 16.0586 23.5699 16.0443 23.7489 16.013C23.928 15.9818 24.1026 15.9362 24.2711 15.8763C24.4396 15.8151 24.6006 15.7409 24.7526 15.6537C24.9046 15.5651 25.0445 15.4649 25.1739 15.3542C25.3033 15.2422 25.4192 15.1198 25.52 14.9883C25.6223 14.8568 25.7081 14.7188 25.7773 14.5716C25.848 14.4258 25.9007 14.2748 25.9353 14.1198C25.9714 13.9649 25.9895 13.8086 25.9895 13.6498V2.71875L15.8326 9.56642Z" fill="#858EA9"/>
</g>
</svg>
