<svg width="28" height="24" viewBox="0 0 28 24" fill="none" xmlns="http://www.w3.org/2000/svg">
<mask id="mask0_30_1958" style="mask-type:luminance" maskUnits="userSpaceOnUse" x="9" y="0" width="19" height="19">
<path d="M9.5556 0H27.6354V18.173H9.5556V0Z" fill="white"/>
</mask>
<g mask="url(#mask0_30_1958)">
<path d="M25.8567 0H11.6514C10.7053 0 9.93011 0.868725 9.93011 1.96317V12.4277C9.93011 13.5696 10.6396 14.4155 11.566 14.4155H15.0955V17.3973C15.0955 17.5718 15.1809 17.7463 15.3321 17.8449C15.4618 17.9189 15.6326 17.9189 15.7837 17.8202L20.0885 14.4155H25.9635C26.8471 14.3909 27.578 13.4956 27.578 12.4277V1.96317C27.578 0.868725 26.8027 0 25.8567 0ZM26.7173 12.4277C26.7173 12.974 26.3084 13.4216 25.9421 13.4216H19.9588C19.8734 13.4216 19.7863 13.4463 19.7223 13.4956L15.9562 16.4527V13.9186C15.9562 13.6454 15.7624 13.4216 15.5259 13.4216H11.566C11.07 13.4216 10.7907 12.9247 10.7907 12.4277V1.96317C10.7907 1.44155 11.1784 0.993913 11.6514 0.993913H25.8567C26.3297 0.993913 26.7173 1.415 26.7173 1.96317V12.4277Z" fill="#4942E4"/>
</g>
<path d="M18.97 3.00637C18.4099 2.93239 17.8712 3.13155 17.4409 3.55264C17.0319 3.97562 16.7954 4.57311 16.7954 5.19335C16.7954 5.46649 16.9892 5.69031 17.2257 5.69031C17.4622 5.69031 17.656 5.46649 17.656 5.19335C17.656 4.84624 17.7858 4.52189 18.001 4.29997C18.2375 4.04959 18.538 3.95096 18.8402 3.97562C19.356 4.04959 19.7222 4.47258 19.7863 5.0454C19.8093 5.31854 19.7649 5.59168 19.6368 5.84015C19.5284 6.01466 19.3773 6.18727 19.2065 6.36177C19.0981 6.48696 18.97 6.61025 18.8616 6.76009C18.4953 7.23239 18.3015 7.82798 18.3015 8.49944V9.44404C18.3015 9.71717 18.4953 9.94099 18.7318 9.94099C18.97 9.94099 19.1621 9.71717 19.1621 9.44404V8.49944C19.1621 8.07646 19.2705 7.72935 19.5071 7.43155C19.5941 7.33102 19.7009 7.20773 19.8093 7.1072C20.0031 6.88338 20.2182 6.65956 20.389 6.38643C20.6272 5.96345 20.7126 5.46649 20.6699 4.96953C20.5828 3.90165 19.8733 3.1069 18.97 3.00637Z" fill="#4942E4"/>
<path d="M19.1851 11.432C19.1851 11.4984 19.1737 11.5629 19.1523 11.6236C19.1293 11.6843 19.0981 11.7374 19.0587 11.7848C19.0176 11.8303 18.9716 11.8664 18.9191 11.891C18.8665 11.9176 18.8107 11.929 18.7532 11.929C18.6973 11.929 18.6415 11.9176 18.5889 11.891C18.5364 11.8664 18.4904 11.8303 18.4493 11.7848C18.4099 11.7374 18.3787 11.6843 18.3557 11.6236C18.3344 11.5629 18.3229 11.4984 18.3229 11.432C18.3229 11.3675 18.3344 11.303 18.3557 11.2423C18.3787 11.1816 18.4099 11.1285 18.4493 11.0811C18.4904 11.0337 18.5364 10.9995 18.5889 10.973C18.6415 10.9483 18.6973 10.9351 18.7532 10.9351C18.8107 10.9351 18.8665 10.9483 18.9191 10.973C18.9716 10.9995 19.0176 11.0337 19.0587 11.0811C19.0981 11.1285 19.1293 11.1816 19.1523 11.2423C19.1737 11.303 19.1851 11.3675 19.1851 11.432Z" fill="#4942E4"/>
<mask id="mask1_30_1958" style="mask-type:luminance" maskUnits="userSpaceOnUse" x="0" y="5" width="18" height="19">
<path d="M0 5.5481H17.9648V24H0V5.5481Z" fill="white"/>
</mask>
<g mask="url(#mask1_30_1958)">
<path d="M16.9038 18.1179L16.2567 18.6415C16.0415 18.8141 15.7837 18.8899 15.5258 18.8899C15.3107 18.8899 15.1169 18.8387 14.9231 18.7154C14.4927 18.4669 14.2349 17.9453 14.2349 17.3972V15.4093H11.5659C10.9205 15.4093 10.339 15.1362 9.90873 14.6639H4.33434C4.09783 14.6639 3.90402 14.4401 3.90402 14.167C3.90402 13.8938 4.09783 13.67 4.33434 13.67H9.28461C9.17621 13.3703 9.0908 13.0232 9.06945 12.6761H4.33434C4.09783 12.6761 3.90402 12.4523 3.90402 12.1772C3.90402 11.9041 4.09783 11.6803 4.33434 11.6803H9.06945V10.6864H4.33434C4.09783 10.6864 3.90402 10.4625 3.90402 10.1894C3.90402 9.91627 4.09783 9.69245 4.33434 9.69245H9.06945V5.96338H1.7508C0.804766 5.96338 0.029541 6.834 0.029541 7.92844V18.3911C0.029541 19.4609 0.762063 20.3561 1.6654 20.3808H7.519C7.519 20.3808 11.8238 23.7609 11.8451 23.7855C11.9749 23.8842 12.1474 23.9107 12.2968 23.8102C12.4479 23.7362 12.5333 23.5617 12.5333 23.3625V20.3808H16.0629C16.9892 20.3808 17.6988 19.5348 17.6988 18.3911V17.5224L16.9038 18.1179ZM13.3726 16.6517H4.33434C4.09783 16.6517 3.90402 16.4279 3.90402 16.1548C3.90402 15.8816 4.09783 15.6578 4.33434 15.6578H13.3726C13.6108 15.6578 13.8046 15.8816 13.8046 16.1548C13.8046 16.4279 13.6108 16.6517 13.3726 16.6517Z" fill="#4942E4"/>
</g>
</svg>
