<svg width="18" height="16" viewBox="0 0 18 16" fill="none" xmlns="http://www.w3.org/2000/svg">
<mask id="mask0_473_35883" style="mask-type:luminance" maskUnits="userSpaceOnUse" x="0" y="2" width="11" height="15">
<path d="M0 2.25586H10.3333V16.0015H0V2.25586Z" fill="white"/>
</mask>
<g mask="url(#mask0_473_35883)">
<path d="M10.2735 6.91074C10.2735 6.08332 10.0391 5.31459 9.56906 4.60453C8.96359 4.75359 8.48051 5.05756 8.11853 5.5188C8.37635 5.95422 8.50395 6.41781 8.50395 6.91074C8.50395 7.10321 8.48312 7.29334 8.44145 7.48112C8.40109 7.67008 8.33859 7.85199 8.25786 8.02921C8.17583 8.20761 8.07557 8.37544 7.95838 8.53505C7.83989 8.69467 7.70447 8.84255 7.55473 8.97752C7.40369 9.11366 7.23963 9.23454 7.06254 9.34134C6.88546 9.44814 6.69926 9.53852 6.50265 9.61128C6.30603 9.68522 6.10291 9.74038 5.89458 9.77794C5.68494 9.81549 5.474 9.83427 5.26176 9.83427C5.04822 9.83427 4.83728 9.81549 4.62895 9.77794C4.42062 9.74038 4.21749 9.68522 4.02088 9.61128C3.82426 9.53852 3.63676 9.44814 3.45968 9.34134C3.2826 9.23454 3.11984 9.11366 2.96879 8.97752C2.81775 8.84255 2.68364 8.69467 2.56515 8.53505C2.44666 8.37544 2.3477 8.20761 2.26567 8.02921C2.18364 7.85199 2.12244 7.67008 2.08077 7.48112C2.03911 7.29334 2.01827 7.10321 2.01827 6.91074C2.01827 6.71943 2.03911 6.5293 2.08077 6.34152C2.12244 6.15256 2.18364 5.96948 2.26567 5.79226C2.3477 5.61504 2.44666 5.44721 2.56515 5.28759C2.68364 5.12798 2.81775 4.9801 2.96879 4.84396C3.11984 4.70899 3.2826 4.5881 3.45968 4.4813C3.63676 4.3745 3.82426 4.28413 4.02088 4.21136C4.21749 4.13742 4.42062 4.08226 4.62895 4.04471C4.83728 4.00715 5.04822 3.98837 5.26176 3.98837C5.40369 3.98837 5.54562 3.99659 5.68624 4.01185C6.08338 3.50249 6.56775 3.07293 7.14197 2.72671C6.54041 2.50254 5.91281 2.39222 5.26176 2.39457C4.95187 2.3934 4.64327 2.41922 4.33859 2.47086C4.0339 2.5225 3.73572 2.59878 3.44666 2.69972C3.1576 2.80065 2.88155 2.92505 2.61723 3.07293C2.35421 3.22081 2.10812 3.38864 1.87895 3.5776C1.64978 3.76655 1.44145 3.97194 1.25525 4.19611C1.06905 4.4191 0.907596 4.65617 0.769576 4.90733C0.631555 5.15849 0.520878 5.41787 0.437544 5.6878C0.352909 5.95657 0.296919 6.23002 0.269576 6.50935C0.242232 6.7875 0.243534 7.06683 0.273482 7.34498C0.30343 7.62313 0.362024 7.89659 0.447961 8.16536C0.533898 8.43412 0.64718 8.69349 0.786503 8.94231C0.927128 9.19229 1.09119 9.42819 1.27869 9.65118C1.46749 9.873 1.67713 10.0772 1.9076 10.265C2.13807 10.4516 2.38676 10.6183 2.65109 10.7638C2.91541 10.9093 3.19405 11.0326 3.48312 11.1311C3.77348 11.2309 4.07166 11.3048 4.37765 11.3541V13.0231H3.78781C3.70577 13.0231 3.63676 13.0489 3.57947 13.1005C3.52218 13.1522 3.49353 13.2155 3.49223 13.2883V14.3516C3.49353 14.4244 3.52218 14.4866 3.57947 14.5382C3.63676 14.591 3.70577 14.6169 3.78781 14.6169H4.37765V15.6802C4.37765 15.7529 4.40629 15.8151 4.46359 15.8668C4.52088 15.9196 4.59119 15.9454 4.67192 15.9454H5.85161C5.93234 15.9454 6.00135 15.9196 6.05994 15.8668C6.11723 15.8151 6.14588 15.7529 6.14588 15.6802V14.6169H6.73572C6.81645 14.6169 6.88676 14.591 6.94406 14.5382C7.00135 14.4866 7.02999 14.4244 7.02999 14.3516V13.2883C7.02999 13.2155 7.00135 13.1522 6.94406 13.1005C6.88676 13.0489 6.81645 13.0231 6.73572 13.0231H6.14588V11.3541C6.43234 11.3072 6.71359 11.2391 6.98702 11.1487C7.26046 11.0584 7.52348 10.9469 7.77609 10.8154C8.02739 10.6828 8.26567 10.5326 8.48833 10.3636C8.71098 10.1946 8.91671 10.0091 9.10421 9.80728C9.29041 9.60659 9.45708 9.39181 9.60291 9.16412C9.74874 8.93644 9.87114 8.69936 9.9714 8.45172C10.0704 8.20526 10.1459 7.95175 10.1967 7.69355C10.2474 7.43418 10.2722 7.17363 10.2735 6.91074Z" fill="#858EA9"/>
</g>
<mask id="mask1_473_35883" style="mask-type:luminance" maskUnits="userSpaceOnUse" x="5" y="0" width="13" height="12">
<path d="M5 0H18V11.5674H5V0Z" fill="white"/>
</mask>
<g mask="url(#mask1_473_35883)">
<path d="M17.6432 0H14.1054C14.0234 0 13.9544 0.0258202 13.8971 0.0786339C13.8398 0.130274 13.8112 0.192477 13.8099 0.265243V1.32856C13.8112 1.40133 13.8398 1.4647 13.8971 1.51634C13.9544 1.56798 14.0234 1.5938 14.1054 1.5938H14.8684L13.1028 3.18643C12.6875 2.92588 12.2382 2.72871 11.7552 2.59374C11.2721 2.4576 10.7786 2.3907 10.2734 2.39188C9.83068 2.3907 9.39579 2.44234 8.96871 2.5468C8.54032 2.65008 8.13537 2.80265 7.75386 3.00334C7.37105 3.20286 7.02339 3.44463 6.7122 3.72865C6.401 4.0115 6.13537 4.32721 5.91662 4.67343C5.69787 5.02083 5.53251 5.38701 5.42183 5.77313C5.31115 6.15926 5.25777 6.55126 5.26167 6.9503C5.26558 7.34933 5.32808 7.74016 5.44787 8.12511C5.56636 8.50889 5.73954 8.87154 5.9661 9.21542C6.57027 9.0652 7.05464 8.76239 7.41923 8.3035C7.30725 8.11689 7.2174 7.9209 7.1523 7.71668C7.0872 7.51364 7.04683 7.30473 7.03121 7.09348C7.01688 6.88105 7.0273 6.6698 7.06376 6.45971C7.09891 6.24963 7.16011 6.04542 7.24475 5.84825C7.33068 5.6499 7.43876 5.46212 7.56897 5.2849C7.69917 5.10885 7.85022 4.94689 8.01949 4.79901C8.19006 4.65113 8.37496 4.52203 8.57548 4.41171C8.7773 4.30022 8.98954 4.20985 9.21219 4.1406C9.43485 4.07136 9.66272 4.02441 9.89709 4.00094C10.1315 3.97629 10.3658 3.97512 10.6002 3.99624C10.8346 4.01737 11.0638 4.06197 11.2877 4.12887C11.5117 4.19576 11.7252 4.28261 11.9283 4.39176C12.1302 4.49973 12.3177 4.62649 12.4895 4.77202C12.6614 4.91755 12.8138 5.07717 12.9479 5.25321C13.0807 5.42808 13.1914 5.61469 13.2799 5.81186C13.3684 6.00904 13.4322 6.21208 13.4713 6.42098C13.5104 6.63107 13.5234 6.84232 13.5117 7.05358C13.5 7.26601 13.4622 7.47491 13.3997 7.6803C13.3372 7.88451 13.2513 8.08168 13.1419 8.26947C13.0325 8.45725 12.901 8.63212 12.7487 8.79408C12.5963 8.95722 12.427 9.10275 12.2395 9.23185C12.052 9.35978 11.8515 9.46893 11.638 9.5593C11.4244 9.64849 11.2018 9.71657 10.9713 9.76234C10.7421 9.80811 10.5091 9.83158 10.2734 9.83158C10.1302 9.83158 9.98693 9.82337 9.84501 9.80459C9.44787 10.3163 8.96219 10.7447 8.38667 11.0909C8.99084 11.3139 9.61975 11.4266 10.2734 11.4254C10.6015 11.4254 10.927 11.396 11.25 11.3374C11.5729 11.2799 11.8854 11.1942 12.1901 11.0803C12.4934 10.9665 12.7825 10.8268 13.0559 10.6625C13.3294 10.497 13.582 10.3104 13.8151 10.1003C14.0468 9.89144 14.2552 9.66258 14.4375 9.41611C14.621 9.16965 14.7747 8.91027 14.901 8.63564C15.0273 8.36218 15.1224 8.08051 15.1875 7.78945C15.2513 7.49839 15.2838 7.20498 15.2838 6.90804C15.2851 6.45267 15.2109 6.00786 15.0599 5.57244C14.9101 5.13702 14.6914 4.73212 14.4036 4.35773L16.1692 2.76627V3.45402C16.1692 3.52796 16.1979 3.59016 16.2552 3.6418C16.3125 3.69344 16.3828 3.71926 16.4635 3.72044H17.6432C17.7239 3.71926 17.7929 3.69344 17.8515 3.6418C17.9088 3.59016 17.9375 3.52796 17.9375 3.45402V0.265243C17.9375 0.192477 17.9088 0.130274 17.8515 0.0786339C17.7929 0.0258202 17.7239 0 17.6432 0Z" fill="#858EA9"/>
</g>
</svg>
