<svg width="13" height="19" viewBox="0 0 13 19" fill="none" xmlns="http://www.w3.org/2000/svg">
<path d="M1.99128 0.772461H10.8762C10.9953 0.772461 11.1091 0.792562 11.2195 0.832764C11.3298 0.872966 11.4261 0.930176 11.5101 1.00439C11.5942 1.07861 11.659 1.1652 11.7045 1.26107C11.75 1.35848 11.7728 1.46053 11.7728 1.56567V18.2355H1.09473V1.56567C1.09473 1.46053 1.11749 1.35848 1.16302 1.26107C1.20855 1.1652 1.27334 1.07861 1.35739 1.00439C1.44144 0.930176 1.53775 0.872966 1.64807 0.832764C1.75839 0.792562 1.87221 0.772461 1.99128 0.772461Z" fill="#858EA9"/>
<path d="M10.8758 0.772461H10.0703C10.1894 0.772461 10.3032 0.792562 10.4135 0.832764C10.5238 0.872966 10.6202 0.930176 10.706 1.00439C10.79 1.07861 10.8548 1.1652 10.9003 1.26107C10.9459 1.35848 10.9686 1.46053 10.9686 1.56567V18.2355H11.7724V1.56567C11.7724 1.46053 11.7496 1.35848 11.7041 1.26107C11.6585 1.1652 11.5937 1.07861 11.5097 1.00439C11.4256 0.930176 11.3293 0.872966 11.219 0.832764C11.1087 0.792562 10.9949 0.772461 10.8758 0.772461Z" fill="#222222" fill-opacity="0.15"/>
<mask id="mask0_627_4905" style="mask-type:luminance" maskUnits="userSpaceOnUse" x="0" y="0" width="13" height="19">
<path d="M0 0H13V19H0V0Z" fill="white"/>
</mask>
<g mask="url(#mask0_627_4905)">
<path d="M10.876 0.773112C10.9951 0.773112 11.1089 0.793213 11.2192 0.833415C11.3295 0.873617 11.4258 0.930827 11.5099 1.00505C11.594 1.07926 11.6587 1.16585 11.7043 1.26172C11.7498 1.35913 11.7726 1.46118 11.7726 1.56633V18.2362H1.09449V1.56633C1.09449 1.46118 1.11726 1.35913 1.16278 1.26172C1.20831 1.16585 1.2731 1.07926 1.35715 1.00505C1.4412 0.930827 1.53751 0.873617 1.64783 0.833415C1.75815 0.793213 1.87197 0.773112 1.99104 0.773112H10.876ZM10.876 0H1.99104C1.7564 0.00154613 1.53051 0.0402018 1.31513 0.120605C1.09799 0.199463 0.907126 0.313883 0.740773 0.459229C0.574421 0.60612 0.446592 0.776205 0.355536 0.967936C0.266231 1.15967 0.220703 1.35913 0.220703 1.56633V18.2362C0.220703 18.3382 0.241716 18.4356 0.287244 18.5315C0.331021 18.6258 0.39406 18.7093 0.47636 18.782C0.558661 18.8531 0.653219 18.9103 0.760035 18.949C0.866851 18.9876 0.97892 19.0077 1.09449 19.0077H11.7726C11.8899 19.0077 12.0002 18.9876 12.107 18.949C12.2138 18.9103 12.3084 18.8531 12.3907 18.782C12.473 18.7093 12.536 18.6258 12.5798 18.5315C12.6253 18.4356 12.6463 18.3382 12.6463 18.2362V1.56633C12.6463 1.35758 12.6026 1.15812 12.5115 0.96639C12.4222 0.774658 12.2944 0.60612 12.128 0.459229C11.9617 0.312337 11.7708 0.199463 11.5537 0.119059C11.3365 0.0402017 11.1107 0 10.876 0Z" fill="#858EA9"/>
</g>
<path d="M9.31418 4.86136H7.57887C7.53334 4.85982 7.49481 4.8459 7.46329 4.81652C7.43178 4.78869 7.41426 4.75467 7.41426 4.71447V3.18062C7.41426 3.14042 7.3985 3.1064 7.36523 3.07857C7.33371 3.04919 7.29519 3.03527 7.24966 3.03527H5.63867C5.59314 3.03373 5.55287 3.04764 5.5196 3.07702C5.48633 3.10485 5.46882 3.14042 5.46882 3.18062V4.71447C5.46882 4.75467 5.45306 4.79024 5.42154 4.81807C5.38827 4.8459 5.34974 4.86136 5.30422 4.86136H3.57415C3.52862 4.86136 3.48835 4.87528 3.45508 4.90311C3.42356 4.93094 3.40605 4.96651 3.4043 5.00671V6.42923C3.4043 6.47098 3.42181 6.50655 3.45333 6.53592C3.4866 6.5653 3.52687 6.57922 3.57415 6.57922H5.30422C5.34974 6.57922 5.38827 6.59313 5.42154 6.62251C5.45306 6.65034 5.46882 6.68436 5.46882 6.72456V8.25532C5.46882 8.29707 5.48633 8.33109 5.5196 8.36047C5.55287 8.38985 5.59139 8.40531 5.63867 8.40531H7.24966C7.29519 8.40376 7.33371 8.3883 7.36523 8.35892C7.3985 8.33109 7.41426 8.29553 7.41426 8.25532V6.72456C7.41426 6.68436 7.43002 6.65034 7.46154 6.62251C7.49481 6.59313 7.53334 6.57922 7.57887 6.57922H9.31418C9.35971 6.57922 9.39999 6.5653 9.43151 6.53592C9.46478 6.50655 9.48054 6.47098 9.47879 6.42923V5.00671C9.47879 4.96651 9.46303 4.93249 9.43151 4.90311C9.39824 4.87528 9.35971 4.86136 9.31418 4.86136Z" fill="white"/>
<path d="M2.61574 9.89062H4.10065C4.11466 9.89062 4.11992 9.89681 4.11992 9.90918V10.9761C4.11992 10.9884 4.11466 10.9946 4.10065 10.9946H2.61574C2.60173 10.9946 2.59473 10.9884 2.59473 10.9761V9.90918C2.59473 9.89681 2.60173 9.89062 2.61574 9.89062Z" fill="#A2AED2"/>
<path d="M2.61574 11.8398H4.10065C4.11466 11.8398 4.11992 11.846 4.11992 11.8584V12.9253C4.11992 12.9377 4.11466 12.9438 4.10065 12.9438H2.61574C2.60173 12.9438 2.59473 12.9377 2.59473 12.9253V11.8584C2.59473 11.846 2.60173 11.8398 2.61574 11.8398Z" fill="#A2AED2"/>
<path d="M2.61574 13.7949H4.10065C4.11466 13.7949 4.11992 13.8011 4.11992 13.8119V14.8804C4.11992 14.8912 4.11466 14.8974 4.10065 14.8974H2.61574C2.60173 14.8974 2.59473 14.8912 2.59473 14.8804V13.8119C2.59473 13.8011 2.60173 13.7949 2.61574 13.7949Z" fill="#A2AED2"/>
<path d="M4.66868 9.89062H6.15359C6.1676 9.89062 6.1746 9.89681 6.1746 9.90918V10.9761C6.1746 10.9884 6.1676 10.9946 6.15359 10.9946H4.66868C4.65467 10.9946 4.64941 10.9884 4.64941 10.9761V9.90918C4.64941 9.89681 4.65467 9.89062 4.66868 9.89062Z" fill="#A2AED2"/>
<path d="M4.66868 11.8398H6.15359C6.1676 11.8398 6.1746 11.846 6.1746 11.8584V12.9253C6.1746 12.9377 6.1676 12.9438 6.15359 12.9438H4.66868C4.65467 12.9438 4.64941 12.9377 4.64941 12.9253V11.8584C4.64941 11.846 4.65467 11.8398 4.66868 11.8398Z" fill="#A2AED2"/>
<path d="M4.66868 13.7949H6.15359C6.1676 13.7949 6.1746 13.8011 6.1746 13.8119V14.8804C6.1746 14.8912 6.1676 14.8974 6.15359 14.8974H4.66868C4.65467 14.8974 4.64941 14.8912 4.64941 14.8804V13.8119C4.64941 13.8011 4.65467 13.7949 4.66868 13.7949Z" fill="#A2AED2"/>
<path d="M6.7175 9.89062H8.20242C8.21643 9.89062 8.22343 9.89681 8.22343 9.90918V10.9761C8.22343 10.9884 8.21643 10.9946 8.20242 10.9946H6.7175C6.7035 10.9946 6.69824 10.9884 6.69824 10.9761V9.90918C6.69824 9.89681 6.7035 9.89062 6.7175 9.89062Z" fill="#A2AED2"/>
<path d="M6.7175 11.8398H8.20242C8.21643 11.8398 8.22343 11.846 8.22343 11.8584V12.9253C8.22343 12.9377 8.21643 12.9438 8.20242 12.9438H6.7175C6.7035 12.9438 6.69824 12.9377 6.69824 12.9253V11.8584C6.69824 11.846 6.7035 11.8398 6.7175 11.8398Z" fill="#A2AED2"/>
<path d="M6.7175 13.7949H8.20242C8.21643 13.7949 8.22343 13.8011 8.22343 13.8119V14.8804C8.22343 14.8912 8.21643 14.8974 8.20242 14.8974H6.7175C6.7035 14.8974 6.69824 14.8912 6.69824 14.8804V13.8119C6.69824 13.8011 6.7035 13.7949 6.7175 13.7949Z" fill="#A2AED2"/>
<path d="M8.76536 9.89062H10.252C10.2643 9.89062 10.2713 9.89681 10.2713 9.90918V10.9761C10.2713 10.9884 10.2643 10.9946 10.252 10.9946H8.76536C8.7531 10.9946 8.74609 10.9884 8.74609 10.9761V9.90918C8.74609 9.89681 8.7531 9.89062 8.76536 9.89062Z" fill="#A2AED2"/>
<path d="M8.76536 11.8398H10.252C10.2643 11.8398 10.2713 11.846 10.2713 11.8584V12.9253C10.2713 12.9377 10.2643 12.9438 10.252 12.9438H8.76536C8.7531 12.9438 8.74609 12.9377 8.74609 12.9253V11.8584C8.74609 11.846 8.7531 11.8398 8.76536 11.8398Z" fill="#A2AED2"/>
<path d="M8.76536 13.7949H10.252C10.2643 13.7949 10.2713 13.8011 10.2713 13.8119V14.8804C10.2713 14.8912 10.2643 14.8974 10.252 14.8974H8.76536C8.7531 14.8974 8.74609 14.8912 8.74609 14.8804V13.8119C8.74609 13.8011 8.7531 13.7949 8.76536 13.7949Z" fill="#A2AED2"/>
<path d="M5.08337 16.3214H7.78353C7.84307 16.3199 7.90085 16.3307 7.95514 16.3508C8.01117 16.3725 8.05845 16.4018 8.10047 16.4389C8.14075 16.4776 8.17227 16.5209 8.19503 16.5704C8.21605 16.6199 8.2248 16.6693 8.22305 16.7235V18.2496H4.6491V16.7235C4.6456 16.6709 4.65611 16.6199 4.67712 16.5704C4.69813 16.5224 4.7279 16.4791 4.76993 16.4405C4.8102 16.4034 4.85748 16.374 4.91176 16.3524C4.9678 16.3323 5.02383 16.3214 5.08337 16.3214Z" fill="#A2AED2"/>
</svg>
