<svg width="22" height="26" viewBox="0 0 22 26" fill="none" xmlns="http://www.w3.org/2000/svg">
<path fill-rule="evenodd" clip-rule="evenodd" d="M11.6875 0C14.3454 0 16.5 2.14432 16.5 4.78947L16.4999 6.8419L17.875 6.8421C20.1532 6.8421 22 8.68009 22 10.9474V21.8947C22 24.162 20.1532 26 17.875 26H4.125C1.84683 26 0 24.162 0 21.8947V10.9474C0 8.68009 1.84683 6.8421 4.125 6.8421L5.49997 6.8419L5.5 4.78947C5.5 2.14432 7.65463 0 10.3125 0H11.6875ZM17.875 9.57895H4.125C3.36561 9.57895 2.75 10.1916 2.75 10.9474V21.8947C2.75 22.6505 3.36561 23.2632 4.125 23.2632H17.875C18.6344 23.2632 19.25 22.6505 19.25 21.8947V10.9474C19.25 10.1916 18.6344 9.57895 17.875 9.57895ZM11 12.3158C12.5188 12.3158 13.75 13.5411 13.75 15.0526C13.75 16.0656 13.197 16.95 12.3751 17.4233L12.375 19.1579C12.375 19.9137 11.7594 20.5263 11 20.5263C10.2406 20.5263 9.625 19.9137 9.625 19.1579L9.62489 17.4233C8.80297 16.95 8.25 16.0656 8.25 15.0526C8.25 13.5411 9.48122 12.3158 11 12.3158ZM11.6875 2.73684H10.3125C9.17341 2.73684 8.25 3.65584 8.25 4.78947V6.8421H13.75V4.78947C13.75 3.65584 12.8266 2.73684 11.6875 2.73684Z" fill="#0EBE7E"/>
</svg>
