<svg width="28" height="25" viewBox="0 0 28 25" fill="none" xmlns="http://www.w3.org/2000/svg">
<mask id="mask0_30_1997" style="mask-type:luminance" maskUnits="userSpaceOnUse" x="2" y="0" width="26" height="21">
<path d="M2.99054 0H28V20.2992H2.99054V0Z" fill="white"/>
</mask>
<g mask="url(#mask0_30_1997)">
<path d="M27.8087 10.4967L23.3939 6.60549C23.0038 6.25994 22.3693 6.25994 21.9792 6.60549C21.589 6.94938 21.589 7.50693 21.9792 7.85082L24.6875 10.238H17.0928V1.24357C17.0928 0.913043 16.9451 0.602546 16.6818 0.368838C16.4205 0.13847 16.0587 0.0065918 15.6894 0.0065918H3.38068L10.4678 3.04312C11.8485 3.63741 12.7405 4.89275 12.7405 6.24658V20.2791H15.6894C16.0587 20.2791 16.4205 20.1455 16.6818 19.9151C16.9451 19.6814 17.0928 19.3693 17.0928 19.0387V13.7653H15.536C14.9848 13.7653 14.536 13.3697 14.536 12.8839C14.536 12.3964 14.9848 12.0008 15.536 12.0008H24.6856L21.9792 14.388C21.589 14.7318 21.589 15.2894 21.9792 15.6349C22.1742 15.8069 22.4299 15.892 22.6856 15.892C22.9413 15.892 23.1989 15.8069 23.3939 15.6349L27.8087 11.7437C27.9962 11.5785 28.1023 11.3531 28.1023 11.1194C28.1023 10.8857 27.9962 10.662 27.8087 10.4967Z" fill="#4942E4"/>
</g>
<mask id="mask1_30_1997" style="mask-type:luminance" maskUnits="userSpaceOnUse" x="0" y="0" width="11" height="25">
<path d="M0 0.213623H10.7481V25H0V0.213623Z" fill="white"/>
</mask>
<g mask="url(#mask1_30_1997)">
<path d="M9.59278 4.63105L0.234815 0.619629C0.111709 0.803256 0.0340576 1.01693 0.0340576 1.24396V19.2528C0.0340576 20.0758 0.579513 20.8403 1.41853 21.1992L10.2708 24.9937C10.3731 25.0371 10.4905 25.0321 10.5871 24.9786C10.6818 24.9269 10.7405 24.8317 10.7405 24.7332V6.24697C10.7405 5.56421 10.2897 4.92986 9.59278 4.63105ZM8.95073 15.011C8.95073 15.4985 8.50376 15.8924 7.95073 15.8924C7.3977 15.8924 6.95073 15.4985 6.95073 15.011V12.0062C6.95073 11.5187 7.3977 11.1248 7.95073 11.1248C8.50376 11.1248 8.95073 11.5187 8.95073 12.0062V15.011Z" fill="#4942E4"/>
</g>
</svg>
