<svg width="30" height="24" viewBox="0 0 30 24" fill="none" xmlns="http://www.w3.org/2000/svg">
<path fill-rule="evenodd" clip-rule="evenodd" d="M25.2596 0C27.6573 0 29.6009 1.896 29.6009 4.23484V15.5278C29.6009 17.8666 27.6573 19.7626 25.2596 19.7626H14.6474C14.3343 19.7626 14.0296 19.8617 13.7791 20.0449L8.76248 23.7151C7.80849 24.4131 6.44709 23.7491 6.44709 22.5858V19.7626H4.99998C2.60232 19.7626 0.65863 17.8666 0.65863 15.5278V4.23484C0.65863 1.896 2.60232 0 4.99998 0H25.2596ZM9.34132 8.46968C10.1405 8.46968 10.7884 9.10168 10.7884 9.8813C10.7884 10.6609 10.1405 11.2929 9.34132 11.2929C8.5421 11.2929 7.89421 10.6609 7.89421 9.8813C7.89421 9.10168 8.5421 8.46968 9.34132 8.46968ZM15.1298 8.46968C15.929 8.46968 16.5769 9.10168 16.5769 9.8813C16.5769 10.6609 15.929 11.2929 15.1298 11.2929C14.3306 11.2929 13.6827 10.6609 13.6827 9.8813C13.6827 9.10168 14.3306 8.46968 15.1298 8.46968ZM20.9182 8.46968C21.7175 8.46968 22.3654 9.10168 22.3654 9.8813C22.3654 10.6609 21.7175 11.2929 20.9182 11.2929C20.119 11.2929 19.4711 10.6609 19.4711 9.8813C19.4711 9.10168 20.119 8.46968 20.9182 8.46968Z" fill="#0EBE7E"/>
</svg>
