<svg width="14" height="13" viewBox="0 0 14 13" fill="none" xmlns="http://www.w3.org/2000/svg">
<mask id="mask0_309_17418" style="mask-type:luminance" maskUnits="userSpaceOnUse" x="0" y="0" width="14" height="13">
<path d="M0 0H14V13H0V0Z" fill="white"/>
</mask>
<g mask="url(#mask0_309_17418)">
<path d="M7.29172 0.577335L8.58339 0.132153C8.95492 0.00519984 9.36811 0.133846 9.59033 0.44869L10.3664 1.54387C10.4792 1.70299 10.6459 1.81978 10.8369 1.87395L12.1511 2.24973C12.5296 2.35806 12.7848 2.6983 12.7744 3.07916L12.7379 4.40455C12.731 4.59921 12.7952 4.7871 12.9167 4.94114L13.7535 5.99231C13.9931 6.2953 13.9931 6.7151 13.7535 7.01809L12.9167 8.06926C12.7952 8.22161 12.731 8.41119 12.7379 8.60416L12.7744 9.93124C12.7848 10.3121 12.5296 10.6523 12.1511 10.7607L10.8369 11.1348C10.6459 11.1906 10.4792 11.3074 10.3664 11.4665L9.59033 12.56C9.36811 12.8749 8.95492 13.0052 8.58339 12.8782L7.29172 12.4331C7.10249 12.3687 6.89762 12.3687 6.70839 12.4331L5.41672 12.8782C5.04519 13.0052 4.632 12.8749 4.40978 12.56L3.63373 11.4665C3.52089 11.3074 3.35422 11.1906 3.16325 11.1348L1.84728 10.7607C1.47054 10.6523 1.2136 10.3121 1.22575 9.93124L1.26221 8.60416C1.26742 8.41119 1.20492 8.22161 1.08339 8.06926L0.246582 7.01809C0.00699864 6.7151 0.00699864 6.2953 0.246582 5.99231L1.08339 4.94114C1.20492 4.7871 1.26742 4.59921 1.26221 4.40455L1.22575 3.07916C1.2136 2.6983 1.47054 2.35806 1.84728 2.24973L3.16325 1.87395C3.35422 1.81978 3.52089 1.70299 3.63373 1.54387L4.40978 0.44869C4.632 0.133846 5.04519 0.00519984 5.41672 0.132153L6.70839 0.577335C6.89762 0.641659 7.10249 0.641659 7.29172 0.577335Z" fill="#999999"/>
</g>
<path d="M10.706 4.3817L9.6609 3.25L5.75149 7.48479L4.34091 5.95592L3.29419 7.08943L4.29605 8.17397L5.75149 9.75L7.20692 8.17397L10.706 4.3817Z" fill="white"/>
</svg>
