<svg width="26" height="24" viewBox="0 0 26 24" fill="none" xmlns="http://www.w3.org/2000/svg">
<mask id="mask0_338_1431" style="mask-type:luminance" maskUnits="userSpaceOnUse" x="0" y="0" width="26" height="24">
<path d="M0 0H26V24H0V0Z" fill="white"/>
</mask>
<g mask="url(#mask0_338_1431)">
<path d="M24.6076 14.127C24.2684 14.12 23.98 14.2275 23.7411 14.4494L19.339 18.4401V3.47397C19.339 3.41906 19.3275 3.36649 19.3047 3.31626C19.2818 3.26486 19.2488 3.22047 19.2068 3.18191C19.1649 3.14336 19.1166 3.11299 19.0607 3.09196C19.0061 3.07093 18.9489 3.06042 18.8892 3.06042H14.3702V2.44944C14.3702 2.39453 14.3588 2.34196 14.3359 2.29173C14.313 2.24033 14.28 2.19593 14.2381 2.15738C14.1961 2.11883 14.1479 2.08846 14.092 2.06743C14.0373 2.0464 13.9802 2.03589 13.9205 2.03589H12.0338C12.0224 1.90037 11.9982 1.76719 11.9589 1.63519C11.9207 1.50318 11.8699 1.37584 11.8051 1.25318C11.7403 1.13051 11.6641 1.01486 11.5765 0.905045C11.4888 0.795232 11.3897 0.693597 11.2817 0.601307C11.1724 0.509017 11.0556 0.426073 10.9298 0.353643C10.804 0.281213 10.6732 0.220466 10.5347 0.170232C10.3975 0.119999 10.2552 0.0826156 10.1091 0.0580827C9.96424 0.0323819 9.81686 0.0195312 9.66822 0.0195312C9.52084 0.0195312 9.37347 0.0323819 9.22737 0.0580827C9.08253 0.0826156 8.94024 0.119999 8.80303 0.170232C8.66455 0.220466 8.53242 0.281213 8.40665 0.353643C8.28214 0.426073 8.16399 0.509017 8.056 0.601307C7.94674 0.693597 7.84892 0.795232 7.76125 0.905045C7.67232 1.01486 7.59609 1.13051 7.53257 1.25318C7.46778 1.37584 7.41569 1.50318 7.37757 1.63519C7.33946 1.76719 7.31405 1.90037 7.30389 2.03589H5.41725C5.35754 2.03589 5.30037 2.0464 5.24447 2.06743C5.18984 2.08846 5.14156 2.11883 5.09964 2.15738C5.05644 2.19593 5.02468 2.24033 5.00181 2.29173C4.97894 2.34196 4.96751 2.39453 4.96751 2.44944V3.07327H0.452288C0.392576 3.07327 0.335405 3.08378 0.280775 3.10481C0.226145 3.12584 0.176598 3.15505 0.134672 3.19477C0.0927471 3.23332 0.0609853 3.27771 0.0381172 3.32794C0.0152487 3.37934 0.0038147 3.43191 0.0038147 3.48682V23.5873C0.0038147 23.6422 0.0152487 23.6948 0.0381172 23.745C0.0609853 23.7952 0.0927471 23.8408 0.134672 23.8793C0.176598 23.9179 0.226145 23.9471 0.280775 23.9681C0.335405 23.9892 0.392576 23.9997 0.452288 23.9997H18.921C18.9807 23.9997 19.0379 23.9892 19.0925 23.9681C19.1471 23.9471 19.1967 23.9179 19.2386 23.8793C19.2805 23.8408 19.3123 23.7952 19.3352 23.745C19.358 23.6948 19.3695 23.6422 19.3695 23.5873V21.592L25.4702 16.0476C25.5566 15.9693 25.6278 15.8817 25.6849 15.7836C25.7421 15.6854 25.7828 15.5814 25.8069 15.4728C25.831 15.363 25.8374 15.2532 25.826 15.1422C25.8145 15.0324 25.7853 14.9249 25.7383 14.8221C25.6926 14.7193 25.6316 14.6247 25.5541 14.5382C25.4778 14.4529 25.3889 14.3782 25.2885 14.3163C25.1869 14.2543 25.0789 14.2076 24.9633 14.1749C24.8477 14.1434 24.7295 14.127 24.6076 14.127ZM5.87081 3.47397V2.85014H7.93277C7.96326 2.84079 7.99121 2.82677 8.01789 2.80925L8.07125 2.76719L8.12588 2.70528C8.16907 2.65037 8.19067 2.58846 8.18813 2.51953C8.19067 2.49266 8.19067 2.46462 8.18813 2.43659C8.18813 2.43659 8.18813 2.40855 8.18813 2.3957C8.18432 2.33962 8.18432 2.28238 8.18813 2.22631C8.18813 2.13519 8.19829 2.04523 8.21735 1.95645C8.23641 1.86766 8.26563 1.78121 8.30247 1.6971C8.34058 1.61299 8.38759 1.53355 8.44222 1.45762C8.49685 1.38168 8.5591 1.31276 8.62898 1.2485C8.69886 1.18425 8.77508 1.12584 8.85766 1.07561C8.93897 1.02537 9.02663 0.983316 9.11684 0.94827C9.20831 0.913223 9.30232 0.887522 9.40015 0.86883C9.49671 0.851307 9.59453 0.843129 9.69363 0.843129C9.79272 0.843129 9.89055 0.851307 9.9871 0.86883C10.0837 0.887522 10.1777 0.913223 10.2691 0.94827C10.3606 0.983316 10.447 1.02537 10.5296 1.07561C10.6122 1.12584 10.6871 1.18425 10.757 1.2485C10.8269 1.31276 10.8891 1.38168 10.945 1.45762C10.9997 1.53355 11.0454 1.61299 11.0835 1.6971C11.1216 1.78121 11.1496 1.86766 11.1699 1.95645C11.189 2.04523 11.1979 2.13519 11.1979 2.22631C11.2029 2.28238 11.2029 2.33962 11.1979 2.3957C11.189 2.46813 11.1991 2.53939 11.2296 2.60598C11.2601 2.68191 11.3135 2.74149 11.3872 2.78355L11.4583 2.81743L11.5396 2.84196H13.5203V4.17257H5.88351L5.87081 3.47397ZM3.33242 7.80341H16.037C16.1044 7.78589 16.1717 7.78355 16.2403 7.7964C16.3089 7.80925 16.3712 7.83495 16.4271 7.8735C16.483 7.91206 16.5262 7.96112 16.5567 8.01836C16.5884 8.07677 16.6037 8.13752 16.6037 8.20177C16.6037 8.26603 16.5884 8.32677 16.5567 8.38519C16.5262 8.44243 16.483 8.49033 16.4271 8.53005C16.3712 8.5686 16.3089 8.5943 16.2403 8.60715C16.1717 8.61883 16.1044 8.61766 16.037 8.60014H3.33242C3.2346 8.57561 3.15456 8.52654 3.09358 8.45294C3.03133 8.37818 3.00083 8.29523 3.00083 8.20177C3.00083 8.10832 3.03133 8.02537 3.09358 7.95061C3.15456 7.87701 3.2346 7.82794 3.33242 7.80341ZM3.33242 11.467H16.037C16.1044 11.4506 16.1717 11.4483 16.2403 11.46C16.3089 11.4728 16.3712 11.4985 16.4271 11.5371C16.483 11.5768 16.5262 11.6247 16.5567 11.6831C16.5884 11.7403 16.6037 11.8011 16.6037 11.8653C16.6037 11.9296 16.5884 11.9915 16.5567 12.0487C16.5262 12.106 16.483 12.155 16.4271 12.1936C16.3712 12.2333 16.3089 12.259 16.2403 12.2707C16.1717 12.2836 16.1044 12.2812 16.037 12.2649H3.33242C3.2346 12.2403 3.15456 12.1901 3.09358 12.1165C3.03133 12.0429 3.00083 11.9588 3.00083 11.8653C3.00083 11.773 3.03133 11.6889 3.09358 11.6153C3.15456 11.5406 3.2346 11.4915 3.33242 11.467ZM3.33242 15.1317H16.037C16.1044 15.1142 16.1717 15.1118 16.2403 15.1247C16.3089 15.1364 16.3712 15.1621 16.4271 15.2018C16.483 15.2403 16.5262 15.2894 16.5567 15.3466C16.5884 15.4039 16.6037 15.4658 16.6037 15.53C16.6037 15.5943 16.5884 15.655 16.5567 15.7123C16.5262 15.7707 16.483 15.8186 16.4271 15.8583C16.3712 15.8969 16.3089 15.9226 16.2403 15.9354C16.1717 15.9471 16.1044 15.9448 16.037 15.9284H3.33242C3.2346 15.9039 3.15456 15.8548 3.09358 15.78C3.03133 15.7064 3.00083 15.6235 3.00083 15.53C3.00083 15.4366 3.03133 15.3525 3.09358 15.2789C3.15456 15.2053 3.2346 15.155 3.33242 15.1317ZM3.33242 19.5966C3.23206 19.5733 3.15075 19.5242 3.08723 19.4494C3.0237 19.3747 2.99194 19.2906 2.99194 19.1959C2.99194 19.1013 3.0237 19.016 3.08723 18.9413C3.15075 18.8665 3.23206 18.8186 3.33242 18.7952H13.8264L13.8531 18.8244L14.6484 19.5966H3.33242ZM24.8642 15.4658L18.6199 21.1329L18.2781 21.4424C18.2108 21.5079 18.1282 21.5394 18.0317 21.5382H17.9859C17.9034 21.5289 17.8347 21.4962 17.7801 21.4389L15.1744 18.9144L14.4998 18.2742C14.4324 18.21 14.3994 18.1329 14.4007 18.0429C14.4045 17.9553 14.4401 17.8817 14.5087 17.8198C14.5786 17.7567 14.6624 17.7263 14.7602 17.7298C14.8581 17.7345 14.9406 17.7684 15.008 17.8326L17.7026 20.4681C17.7877 20.5476 17.8919 20.5896 18.0126 20.592C18.1346 20.5943 18.2375 20.5557 18.3226 20.4763L19.1408 19.7333L19.1675 19.7123L19.2221 19.6621L24.37 15.0195C24.4297 14.9471 24.5085 14.9121 24.6076 14.9121C24.7054 14.9132 24.788 14.9459 24.8553 15.0114C24.9252 15.0733 24.9595 15.1492 24.9582 15.238C24.962 15.3303 24.9315 15.4097 24.8642 15.4786V15.4658Z" fill="#858EA9"/>
</g>
</svg>
