<svg width="24" height="25" viewBox="0 0 24 25" fill="none" xmlns="http://www.w3.org/2000/svg">
<path d="M21.2381 17.8096H23.5238V20.0953H0.666626L0.666626 17.8096H2.95234L2.95234 9.8096C2.95234 7.38477 3.9156 5.05925 5.63022 3.34463C7.34484 1.63001 9.67036 0.666748 12.0952 0.666748C14.52 0.666748 16.8456 1.63001 18.5602 3.34463C20.2748 5.05925 21.2381 7.38477 21.2381 9.8096V17.8096ZM18.9523 17.8096V9.8096C18.9523 7.99098 18.2299 6.24684 16.9439 4.96087C15.658 3.67491 13.9138 2.95246 12.0952 2.95246C10.2766 2.95246 8.53243 3.67491 7.24647 4.96087C5.9605 6.24684 5.23805 7.99098 5.23805 9.8096V17.8096H18.9523ZM8.66663 22.381H15.5238V24.6667H8.66663L8.66663 22.381Z" fill="black"/>
</svg>
