<svg width="27" height="21" viewBox="0 0 27 21" fill="none" xmlns="http://www.w3.org/2000/svg">
<mask id="mask0_309_12882" style="mask-type:luminance" maskUnits="userSpaceOnUse" x="0" y="0" width="27" height="21">
<path d="M0 0H27V21H0V0Z" fill="white"/>
</mask>
<g mask="url(#mask0_309_12882)">
<path d="M25.8612 7.02689H24.8851V4.80141C24.8851 3.7452 24.0303 2.88755 22.9825 2.88755H13.8888L11.9062 0.0195312H1.90257C0.85478 0.0195312 0 0.879939 0 1.93339V18.9044C0 19.9578 0.85478 20.8155 1.90257 20.8155H22.8888C23.6057 20.8155 24.3116 20.2419 24.466 19.5386L26.8869 8.30371C27.0386 7.60325 26.5781 7.02689 25.8612 7.02689ZM18.4026 12.3658L17.7463 15.4765H15.1461L14.5947 18.0826H11.5009L12.0524 15.4765H9.45496L10.114 12.3658H12.7086L13.2601 9.75978H16.3566L15.8051 12.3658H18.4026ZM4.96875 7.02689C4.25184 7.02689 3.54596 7.60325 3.3943 8.30371L1.39246 17.5862V1.93339C1.39246 1.6521 1.62132 1.42045 1.90257 1.42045H11.1783L13.1581 4.28847H22.9825C23.2638 4.28847 23.4926 4.52012 23.4926 4.80141V7.02964H4.96875V7.02689Z" fill="#858EA9"/>
</g>
</svg>
