<svg width="24" height="23" viewBox="0 0 24 23" fill="none" xmlns="http://www.w3.org/2000/svg">
<path d="M23.3812 16.8357C23.4445 16.5104 23.4237 16.1402 23.3167 15.7549C22.6153 13.2283 20.5165 8.05536 18.7724 5.92483C18.3148 5.36576 17.4331 5.41406 16.9219 5.92483C16.697 6.14983 16.5721 6.43639 16.5454 6.73025C16.4085 6.6036 16.2348 6.51615 16.0432 6.49113C16.0432 6.49113 11.6197 5.93991 11.566 5.94692H9.55438C8.89888 5.94692 8.70705 6.32703 8.70705 6.79425V13.252H7.23066V6.32686C7.23066 5.98426 6.95189 5.70549 6.60929 5.70549H0.621375C0.278772 5.70549 0 5.98426 0 6.32686C0 6.32686 0.00214657 16.0511 0.00214657 16.6801C0.00214657 17.4026 0.587878 17.9883 1.31037 17.9883H2.59413C2.52781 18.2584 2.49194 18.5403 2.49194 18.8306C2.49194 20.7797 4.07792 22.3653 6.02728 22.3653C7.97654 22.3653 9.5624 20.7797 9.5624 18.8306C9.5624 18.5403 9.52647 18.2584 9.46021 17.9883H13.4168V18.8551C13.4168 19.5404 13.9743 20.0978 14.6595 20.0978H14.6833C15.0147 20.0978 15.3259 19.9679 15.5594 19.732C15.7929 19.4961 15.9196 19.1837 15.9163 18.8523L15.9075 17.9883H17.0317C16.9654 18.2584 16.9295 18.5403 16.9295 18.8306C16.9295 20.7797 18.5155 22.3653 20.4649 22.3653C22.4141 22.3653 24 20.7797 24 18.8306C23.9999 18.091 23.7711 17.4039 23.3812 16.8357ZM20.4648 17.4965C21.2004 17.4965 21.7988 18.095 21.7988 18.8306C21.7988 19.5662 21.2004 20.1647 20.4648 20.1647C19.7289 20.1647 19.1302 19.5662 19.1302 18.8306C19.1302 18.095 19.7288 17.4965 20.4648 17.4965ZM7.36126 18.8306C7.36126 19.5662 6.76282 20.1647 6.02723 20.1647C5.29135 20.1647 4.69268 19.5662 4.69268 18.8306C4.69268 18.095 5.29135 17.4965 6.02723 17.4965C6.76282 17.4965 7.36126 18.095 7.36126 18.8306ZM15.8609 13.4424C15.8539 12.7587 15.292 12.2026 14.6084 12.2026H12.5405V7.97989L13.5516 8.10411C13.6339 8.4823 13.9702 8.76565 14.3729 8.76565H17.9124L18.1868 11.0514L15.8675 14.0878L15.8609 13.4424Z" fill="#0EBE7F"/>
<path d="M10.3167 4.97112C11.6873 4.97112 12.8023 3.85609 12.8023 2.48544C12.8023 2.31118 12.7841 2.14109 12.7498 1.97682L13.2951 1.96609C13.62 1.95965 13.9702 1.73347 14.1097 1.4399L14.2926 1.05498C14.3795 0.872128 14.375 0.681197 14.2801 0.531106C14.1853 0.381129 14.015 0.295097 13.8111 0.295097L11.5006 0.300463C11.1484 0.108854 10.745 0 10.3167 0C8.94608 0 7.83105 1.11497 7.83105 2.48556C7.83111 3.85609 8.94614 4.97112 10.3167 4.97112Z" fill="#0EBE7F"/>
</svg>
