<svg width="21" height="22" viewBox="0 0 21 22" fill="none" xmlns="http://www.w3.org/2000/svg">
<path d="M4.67437 6.02289C4.67437 5.62782 4.71175 5.23468 4.78651 4.84736C4.86127 4.46004 4.97154 4.08433 5.11732 3.71831C5.26497 3.35423 5.44252 3.00757 5.65559 2.67835C5.86679 2.34912 6.10789 2.04507 6.37702 1.7662C6.64802 1.48539 6.94145 1.23556 7.25731 1.01673C7.57504 0.797887 7.90959 0.611972 8.26283 0.458979C8.6142 0.307923 8.97865 0.193662 9.35245 0.116197C9.72625 0.0387324 10.1038 0 10.4851 0C18.1666 0.28081 18.1816 11.7379 10.5056 12.0438C10.1225 12.0458 9.74494 12.007 9.36927 11.9315C8.99361 11.854 8.62915 11.7398 8.27591 11.5907C7.92267 11.4396 7.58626 11.2537 7.26853 11.0349C6.9508 10.8141 6.6555 10.5662 6.3845 10.2854C6.11349 10.0065 5.87239 9.70247 5.65933 9.37324C5.44626 9.04401 5.26684 8.69542 5.11919 8.33134C4.97341 7.96532 4.86314 7.58768 4.78651 7.19842C4.71175 6.81109 4.67437 6.41796 4.67437 6.02289ZM16.3686 12.0477C16.2098 11.947 16.0378 11.8986 15.8528 11.9025C15.6678 11.9083 15.4977 11.9644 15.3444 12.0729C14.9987 12.3653 14.6286 12.6229 14.2399 12.8495C13.8492 13.0761 13.4437 13.2658 13.0213 13.4188C12.6008 13.5718 12.169 13.6861 11.7279 13.7636C11.2887 13.8391 10.8439 13.8759 10.3972 13.872C9.95053 13.8681 9.50758 13.8255 9.06837 13.7442C8.62728 13.6609 8.19929 13.5389 7.77876 13.3801C7.36011 13.2213 6.95641 13.0257 6.56953 12.7933C6.18265 12.5629 5.81819 12.2975 5.4743 12.0012C5.19582 11.8676 4.92481 11.8831 4.65942 12.0458C3.94173 12.5396 3.29319 13.1187 2.7138 13.779C2.13441 14.4414 1.641 15.1657 1.23543 15.9519C0.827987 16.7401 0.519604 17.5671 0.312146 18.4347C0.102819 19.3004 -0.00184428 20.1815 2.45901e-05 21.0743C2.45901e-05 21.1982 0.0224526 21.3144 0.0691772 21.4287C0.114033 21.543 0.177578 21.6417 0.261683 21.7289C0.345788 21.816 0.442976 21.8819 0.551377 21.9303C0.661647 21.9768 0.775655 22 0.893402 22H20.1066C20.2262 22 20.3402 21.9768 20.4486 21.9303C20.5589 21.8819 20.6561 21.816 20.7383 21.7289C20.8224 21.6417 20.8879 21.543 20.9327 21.4287C20.9776 21.3144 21 21.1982 21 21.0743C21 20.1835 20.8953 19.3062 20.686 18.4405C20.4786 17.5768 20.172 16.7498 19.7683 15.9636C19.3646 15.1754 18.875 14.4511 18.2993 13.7887C17.7237 13.1264 17.0807 12.5454 16.3686 12.0477Z" fill="#858EA9"/>
</svg>
