<svg width="21" height="13" viewBox="0 0 21 13" fill="none" xmlns="http://www.w3.org/2000/svg">
<mask id="mask0_309_17442" style="mask-type:luminance" maskUnits="userSpaceOnUse" x="0" y="0" width="13" height="13">
<path d="M0 0H12.128V13H0V0Z" fill="white"/>
</mask>
<g mask="url(#mask0_309_17442)">
<path d="M11.5545 0.0390625L11.0138 0.419271C8.194 2.40885 5.30349 6.52344 3.86328 9.86979C3.64094 9.54948 3.57272 9.44271 3.35795 9.08594C2.47614 7.85938 1.35935 6.80729 0.828749 6.41927L0 6.77604L0.0252667 6.82552C0.598822 7.47135 1.60191 8.90365 3.11539 12.0573C3.20635 12.1927 3.30742 12.3281 3.41859 12.4505C3.71421 12.7786 4.01741 12.8464 4.21955 12.8464C4.22207 12.8464 4.22207 12.8464 4.22207 12.8464C4.79815 12.8464 5.13926 12.3776 5.37424 11.8281C6.88771 6.03385 10.468 2.04688 12.0169 0.679688L11.5545 0.0390625Z" fill="#0097FF"/>
</g>
<mask id="mask1_309_17442" style="mask-type:luminance" maskUnits="userSpaceOnUse" x="8" y="0" width="13" height="13">
<path d="M8.60059 0H20.7286V13H8.60059V0Z" fill="white"/>
</mask>
<g mask="url(#mask1_309_17442)">
<path d="M20.1551 0.0390625L19.6169 0.419271C16.7946 2.40885 13.9066 6.52344 12.4639 9.86979C12.2415 9.54948 12.1733 9.44271 11.9585 9.08594C11.0767 7.85938 9.95994 6.80729 9.42933 6.41927L8.60059 6.77604L8.62838 6.82552C9.19941 7.47135 10.2025 8.90365 11.716 12.0573C11.8095 12.1927 11.908 12.3281 12.0192 12.4505C12.3173 12.7786 12.6205 12.8464 12.8227 12.8464C13.3987 12.8464 13.7398 12.3776 13.9748 11.8281C15.4908 6.03385 19.0686 2.04688 20.6174 0.679688L20.1551 0.0390625Z" fill="#0097FF"/>
</g>
</svg>
