<svg width="20" height="24" viewBox="0 0 20 24" fill="none" xmlns="http://www.w3.org/2000/svg">
<mask id="mask0_30_1943" style="mask-type:luminance" maskUnits="userSpaceOnUse" x="0" y="0" width="20" height="24">
<path d="M0 0H20V24H0V0Z" fill="white"/>
</mask>
<g mask="url(#mask0_30_1943)">
<path fill-rule="evenodd" clip-rule="evenodd" d="M3.96794 0.00952148H11.1207C11.7252 0.00952148 12.295 0.121701 12.8268 0.344457C13.3603 0.568816 13.8417 0.900547 14.2694 1.33484L18.5734 5.70343C19.0027 6.13933 19.3278 6.62971 19.5472 7.16978C19.7681 7.70824 19.8786 8.28677 19.8786 8.90215V19.9967C19.8786 21.1041 19.432 22.1121 18.7138 22.8396C17.9957 23.5688 17.0046 24.0207 15.914 24.0207H3.96794C2.87735 24.0207 1.88461 23.5688 1.16807 22.8396C0.44995 22.1105 0.0032959 21.1041 0.0032959 19.9967V4.03516C0.0032959 2.92779 0.44995 1.91978 1.16807 1.19061C1.88619 0.461444 2.87735 0.00952148 3.96794 0.00952148ZM5.56043 18.4326C5.17691 18.4326 4.86756 18.1169 4.86756 17.7291C4.86756 17.3413 5.17691 17.0255 5.56043 17.0255H14.3215C14.7034 17.0255 15.0143 17.3413 15.0143 17.7291C15.0143 18.1169 14.7034 18.4326 14.3215 18.4326H5.56043ZM5.56043 13.7836C5.17691 13.7836 4.86756 13.4679 4.86756 13.08C4.86756 12.6922 5.17691 12.3765 5.56043 12.3765H12.0046C12.3865 12.3765 12.6974 12.6922 12.6974 13.08C12.6974 13.4679 12.3865 13.7836 12.0046 13.7836H5.56043Z" fill="#4942E4"/>
</g>
</svg>
