<svg width="26" height="24" viewBox="0 0 26 24" fill="none" xmlns="http://www.w3.org/2000/svg">
<mask id="mask0_338_4140" style="mask-type:luminance" maskUnits="userSpaceOnUse" x="0" y="0" width="26" height="24">
<path d="M0 0H26V24H0V0Z" fill="white"/>
</mask>
<g mask="url(#mask0_338_4140)">
<path d="M13.9662 21.6607V17.9559H12.0381V21.6607C8.49919 21.3532 5.47938 19.3625 3.9015 16.5571C3.45657 15.7577 3.12698 14.8969 2.93335 13.9861C2.86744 13.6748 2.818 13.3519 2.78504 13.0291H6.75652V11.2344H2.78504C3.04871 8.61343 4.44531 6.29606 6.51757 4.71656C8.05425 3.54442 9.9576 2.78349 12.0381 2.59902V6.30374H13.9662V2.59902C14.5759 2.65282 15.1691 2.75659 15.7418 2.90262C16.7264 3.16011 17.6534 3.54826 18.4938 4.04786C21.1057 5.59662 22.9185 8.21375 23.2192 11.2344H19.2477V13.0291H23.2192C22.7619 17.5909 18.8563 21.2341 13.9662 21.6607ZM22.1934 3.55979C21.5672 2.97564 20.8874 2.46067 20.1664 2.01487C19.8163 1.79582 19.4537 1.59598 19.0829 1.41151C18.2878 1.01568 17.4433 0.700542 16.574 0.469958C16.3968 0.423841 16.2156 0.377724 16.0343 0.339293C15.0538 0.120237 14.0362 0.00878906 13.0021 0.00878906C12.8497 0.00878906 12.6931 0.0126324 12.5407 0.0164752H12.5366C9.86284 0.104866 7.33329 0.942656 5.21984 2.42224C4.87789 2.66051 4.54419 2.918 4.22697 3.19085C4.08689 3.30999 3.94682 3.43297 3.81499 3.55979C2.818 4.48597 2.00228 5.53897 1.38843 6.67652C0.688066 7.97548 0.243129 9.38589 0.0783372 10.8501C0.0330203 11.2728 0.00830078 11.6994 0.00830078 12.1298C0.00830078 12.8254 0.0700982 13.5134 0.193691 14.1859C0.21429 14.3089 0.239009 14.4318 0.263728 14.551C0.449118 15.408 0.733384 16.2381 1.10828 17.0298C1.24836 17.3257 1.40491 17.6178 1.5697 17.9021C2.16295 18.9167 2.91275 19.8621 3.81499 20.7037C6.26626 22.9942 9.53326 24.2547 13.0021 24.2547C16.4751 24.2547 19.738 22.9942 22.1934 20.7037C24.6488 18.4133 26.0001 15.3696 26.0001 12.1298C26.0001 8.89398 24.6488 5.84642 22.1934 3.55979Z" fill="#0EBE7E"/>
</g>
</svg>
