<svg width="14" height="13" viewBox="0 0 14 13" fill="none" xmlns="http://www.w3.org/2000/svg">
<mask id="mask0_759_7177" style="mask-type:luminance" maskUnits="userSpaceOnUse" x="0" y="0" width="14" height="13">
<path d="M0 0H14V13H0V0Z" fill="white"/>
</mask>
<g mask="url(#mask0_759_7177)">
<path d="M7.29172 0.57758L8.58339 0.132397C8.95492 0.00544398 9.36811 0.13409 9.59033 0.448934L10.3664 1.54412C10.4792 1.70323 10.6459 1.82003 10.8369 1.87419L12.1511 2.24998C12.5296 2.35831 12.7848 2.69854 12.7744 3.0794L12.7379 4.40479C12.731 4.59945 12.7952 4.78735 12.9167 4.94138L13.7535 5.99255C13.9931 6.29555 13.9931 6.71534 13.7535 7.01833L12.9167 8.06951C12.7952 8.22185 12.731 8.41143 12.7379 8.6044L12.7744 9.93149C12.7848 10.3123 12.5296 10.6526 12.1511 10.7609L10.8369 11.135C10.6459 11.1909 10.4792 11.3077 10.3664 11.4668L9.59033 12.5603C9.36811 12.8751 8.95492 13.0054 8.58339 12.8785L7.29172 12.4333C7.10248 12.369 6.89762 12.369 6.70839 12.4333L5.41672 12.8785C5.04519 13.0054 4.632 12.8751 4.40978 12.5603L3.63373 11.4668C3.52089 11.3077 3.35422 11.1909 3.16325 11.135L1.84728 10.7609C1.47054 10.6526 1.2136 10.3123 1.22575 9.93149L1.26221 8.6044C1.26742 8.41143 1.20492 8.22185 1.08339 8.06951L0.246582 7.01833C0.00699864 6.71534 0.00699864 6.29555 0.246582 5.99255L1.08339 4.94138C1.20492 4.78735 1.26742 4.59945 1.26221 4.40479L1.22575 3.0794C1.2136 2.69854 1.47054 2.35831 1.84728 2.24998L3.16325 1.87419C3.35422 1.82003 3.52089 1.70323 3.63373 1.54412L4.40978 0.448934C4.632 0.13409 5.04519 0.00544398 5.41672 0.132397L6.70839 0.57758C6.89762 0.641903 7.10248 0.641903 7.29172 0.57758Z" fill="#0097FF"/>
</g>
<path d="M10.706 4.3817L9.6609 3.25L5.75149 7.48479L4.34091 5.95592L3.29419 7.08943L4.29605 8.17397L5.75149 9.75L7.20692 8.17397L10.706 4.3817Z" fill="white"/>
</svg>
